<svg xmlns="http://www.w3.org/2000/svg" viewBox="0 0 500 500"><g id="freepik--Circle--inject-123"><path id="freepik--Background--inject-123" d="M204.08,42.88c113.11-29.22,228.49,38.79,257.71,151.9S423,423.28,309.88,452.5,81.39,413.7,52.17,300.59,91,72.09,204.08,42.88Z" style="fill:#36B2B8;opacity:0.1"></path></g><g id="freepik--Clouds--inject-123"><path id="freepik--Cloud--inject-123" d="M444.14,71.46a14.63,14.63,0,0,0-4.82-.89c-1.57-.12-2.06-.43-2.36-.77a11.53,11.53,0,0,0-13.84-4.09c-.92-3.74-5.45-7-10.43-5.89.17-4.87-6-10.09-11.62-11.28-5.35-1.14-10-.66-13.07,2.86-3.27-6.39-16.08-8.19-23-4.81-4,1.94-7.37,3.94-9,7.59a15.24,15.24,0,0,0-1.5,7.26c-2.7-2.38-8.11-3-11.72-1.63-3.89,1.51-4.19,4.44-4.38,7.42a13.46,13.46,0,0,0-7.08-.12c-2.46.72-3.87,2.65-3.53,4.2-1.94-.11-6.56,1.46-6,3.51.6,2.3,5.87,2.07,7.84,2a36.57,36.57,0,0,0,5.52-.86,8.58,8.58,0,0,0,2.87.54c3.36,0,4.78-1.46,5.32-2.71,1.64,3.45,7.48,6.08,11.6,7.14,7.77,2,18.76.77,23.55-5a8.68,8.68,0,0,0,2.31,2.82,13.5,13.5,0,0,0,7.19,2.91c3.19.3,11.75.71,14.16-4.37,1.71,3.38,9.33,4.91,15.13,4.09a23.84,23.84,0,0,0,6.49-2,37.18,37.18,0,0,0,3.73-2.24c1.14-.68,1.66-.67,3.18-.21,4,1.19,8.6,1.68,12.66,0C446.51,75.55,447.18,72.84,444.14,71.46Z" style="fill:#36B2B8"></path><path id="freepik--cloud--inject-123" d="M155.36,86.07a12.79,12.79,0,0,0-4.4-.81c-1.43-.12-1.88-.4-2.15-.71a10.53,10.53,0,0,0-12.63-3.73c-.84-3.41-5-6.38-9.52-5.38.16-4.44-5.51-9.2-10.6-10.29-4.88-1-9.14-.6-11.92,2.61-3-5.82-14.67-7.46-21-4.38-3.63,1.77-6.72,3.59-8.23,6.92a14,14,0,0,0-1.37,6.63c-2.46-2.18-7.4-2.76-10.69-1.49-3.55,1.37-3.82,4-4,6.77a12.43,12.43,0,0,0-6.46-.12c-2.23.67-3.52,2.42-3.22,3.84-1.77-.1-6,1.33-5.5,3.2C44.22,91.23,49,91,50.83,91a33.53,33.53,0,0,0,5-.79,8,8,0,0,0,2.62.5c3.07,0,4.36-1.34,4.86-2.48,1.49,3.15,6.82,5.55,10.58,6.51C81,96.51,91,95.4,95.4,90.1a7.93,7.93,0,0,0,2.11,2.58,12.27,12.27,0,0,0,6.56,2.65c2.91.28,10.72.65,12.92-4,1.56,3.08,8.51,4.48,13.8,3.73a21.64,21.64,0,0,0,5.92-1.79,34.92,34.92,0,0,0,3.41-2c1-.63,1.51-.62,2.9-.2,3.63,1.09,7.84,1.54,11.54,0C157.52,89.8,158.13,87.32,155.36,86.07Z" style="fill:#36B2B8"></path><path id="freepik--cloud--inject-123" d="M417.65,128.61a8.75,8.75,0,0,0-3-.55c-1-.08-1.28-.27-1.47-.49a7.18,7.18,0,0,0-8.61-2.54,5.5,5.5,0,0,0-6.49-3.67c.1-3-3.76-6.28-7.24-7-3.33-.71-6.23-.41-8.13,1.78-2-4-10-5.09-14.33-3-2.48,1.21-4.58,2.45-5.61,4.72a9.55,9.55,0,0,0-.94,4.52c-1.68-1.48-5.05-1.88-7.29-1-2.42.93-2.61,2.76-2.73,4.62a8.48,8.48,0,0,0-4.41-.08c-1.52.45-2.4,1.65-2.19,2.62-1.21-.07-4.08.9-3.75,2.18.37,1.43,3.65,1.28,4.88,1.24a23.16,23.16,0,0,0,3.43-.54,5.33,5.33,0,0,0,1.79.34c2.09,0,3-.91,3.31-1.69,1,2.15,4.65,3.79,7.22,4.44,4.84,1.24,11.68.49,14.66-3.13a5.33,5.33,0,0,0,1.44,1.76,8.37,8.37,0,0,0,4.47,1.81c2,.19,7.31.44,8.82-2.72,1.06,2.1,5.8,3.06,9.41,2.55a15,15,0,0,0,4-1.22,21.6,21.6,0,0,0,2.32-1.4,1.94,1.94,0,0,1,2-.13,11.77,11.77,0,0,0,7.88,0C419.12,131.16,419.54,129.47,417.65,128.61Z" style="fill:#36B2B8"></path><path id="freepik--cloud--inject-123" d="M444.14,71.46a14.63,14.63,0,0,0-4.82-.89c-1.57-.12-2.06-.43-2.36-.77a11.53,11.53,0,0,0-13.84-4.09c-.92-3.74-5.45-7-10.43-5.89.17-4.87-6-10.09-11.62-11.28-5.35-1.14-10-.66-13.07,2.86-3.27-6.39-16.08-8.19-23-4.81-4,1.94-7.37,3.94-9,7.59a15.24,15.24,0,0,0-1.5,7.26c-2.7-2.38-8.11-3-11.72-1.63-3.89,1.51-4.19,4.44-4.38,7.42a13.46,13.46,0,0,0-7.08-.12c-2.46.72-3.87,2.65-3.53,4.2-1.94-.11-6.56,1.46-6,3.51.6,2.3,5.87,2.07,7.84,2a36.57,36.57,0,0,0,5.52-.86,8.58,8.58,0,0,0,2.87.54c3.36,0,4.78-1.46,5.32-2.71,1.64,3.45,7.48,6.08,11.6,7.14,7.77,2,18.76.77,23.55-5a8.68,8.68,0,0,0,2.31,2.82,13.5,13.5,0,0,0,7.19,2.91c3.19.3,11.75.71,14.16-4.37,1.71,3.38,9.33,4.91,15.13,4.09a23.84,23.84,0,0,0,6.49-2,37.18,37.18,0,0,0,3.73-2.24c1.14-.68,1.66-.67,3.18-.21,4,1.19,8.6,1.68,12.66,0C446.51,75.55,447.18,72.84,444.14,71.46Z" style="fill:#fff;opacity:0.8"></path><path id="freepik--cloud--inject-123" d="M155.36,86.07a12.79,12.79,0,0,0-4.4-.81c-1.43-.12-1.88-.4-2.15-.71a10.53,10.53,0,0,0-12.63-3.73c-.84-3.41-5-6.38-9.52-5.38.16-4.44-5.51-9.2-10.6-10.29-4.88-1-9.14-.6-11.92,2.61-3-5.82-14.67-7.46-21-4.38-3.63,1.77-6.72,3.59-8.23,6.92a14,14,0,0,0-1.37,6.63c-2.46-2.18-7.4-2.76-10.69-1.49-3.55,1.37-3.82,4-4,6.77a12.43,12.43,0,0,0-6.46-.12c-2.23.67-3.52,2.42-3.22,3.84-1.77-.1-6,1.33-5.5,3.2C44.22,91.23,49,91,50.83,91a33.53,33.53,0,0,0,5-.79,8,8,0,0,0,2.62.5c3.07,0,4.36-1.34,4.86-2.48,1.49,3.15,6.82,5.55,10.58,6.51C81,96.51,91,95.4,95.4,90.1a7.93,7.93,0,0,0,2.11,2.58,12.27,12.27,0,0,0,6.56,2.65c2.91.28,10.72.65,12.92-4,1.56,3.08,8.51,4.48,13.8,3.73a21.64,21.64,0,0,0,5.92-1.79,34.92,34.92,0,0,0,3.41-2c1-.63,1.51-.62,2.9-.2,3.63,1.09,7.84,1.54,11.54,0C157.52,89.8,158.13,87.32,155.36,86.07Z" style="fill:#fff;opacity:0.8"></path><path id="freepik--cloud--inject-123" d="M417.65,128.61a8.75,8.75,0,0,0-3-.55c-1-.08-1.28-.27-1.47-.49a7.18,7.18,0,0,0-8.61-2.54,5.5,5.5,0,0,0-6.49-3.67c.1-3-3.76-6.28-7.24-7-3.33-.71-6.23-.41-8.13,1.78-2-4-10-5.09-14.33-3-2.48,1.21-4.58,2.45-5.61,4.72a9.55,9.55,0,0,0-.94,4.52c-1.68-1.48-5.05-1.88-7.29-1-2.42.93-2.61,2.76-2.73,4.62a8.48,8.48,0,0,0-4.41-.08c-1.52.45-2.4,1.65-2.19,2.62-1.21-.07-4.08.9-3.75,2.18.37,1.43,3.65,1.28,4.88,1.24a23.16,23.16,0,0,0,3.43-.54,5.33,5.33,0,0,0,1.79.34c2.09,0,3-.91,3.31-1.69,1,2.15,4.65,3.79,7.22,4.44,4.84,1.24,11.68.49,14.66-3.13a5.33,5.33,0,0,0,1.44,1.76,8.37,8.37,0,0,0,4.47,1.81c2,.19,7.31.44,8.82-2.72,1.06,2.1,5.8,3.06,9.41,2.55a15,15,0,0,0,4-1.22,21.6,21.6,0,0,0,2.32-1.4,1.94,1.94,0,0,1,2-.13,11.77,11.77,0,0,0,7.88,0C419.12,131.16,419.54,129.47,417.65,128.61Z" style="fill:#fff;opacity:0.8"></path></g><g id="freepik--flowers-2--inject-123"><g id="freepik--Flower--inject-123"><path d="M63.81,270.76a2.92,2.92,0,0,0-1.83-.71,3.63,3.63,0,0,0-3.34,1.36c-1.17,1.95,1.5,3,3,3a2.37,2.37,0,0,0-1.27,1.55,2.44,2.44,0,0,0,1,2.66c1.76.78,4.22-1.25,4.45-2.92.63,2.58,2.33,3.17,3.81,2,1.22-.94.53-3.29-.9-4,1.57.49,3.7-1,3.49-2.55-.27-2-3.36-1.71-4.2-1.18a2.29,2.29,0,0,0,.21-1.17,3.89,3.89,0,0,0-.76-2.05,2.43,2.43,0,0,0-3.15-.22C62.56,267.54,63.39,269.9,63.81,270.76Z" style="fill:#36B2B8"></path><path d="M63.81,270.76a2.92,2.92,0,0,0-1.83-.71,3.63,3.63,0,0,0-3.34,1.36c-1.17,1.95,1.5,3,3,3a2.37,2.37,0,0,0-1.27,1.55,2.44,2.44,0,0,0,1,2.66c1.76.78,4.22-1.25,4.45-2.92.63,2.58,2.33,3.17,3.81,2,1.22-.94.53-3.29-.9-4,1.57.49,3.7-1,3.49-2.55-.27-2-3.36-1.71-4.2-1.18a2.29,2.29,0,0,0,.21-1.17,3.89,3.89,0,0,0-.76-2.05,2.43,2.43,0,0,0-3.15-.22C62.56,267.54,63.39,269.9,63.81,270.76Z" style="fill:#fff;opacity:0.45"></path><path d="M65.6,273.35c.78-.27,2.81-1,1.37-1.93-1.06-.66-3.5.15-3.78,1.45S65,273.56,65.6,273.35Z" style="fill:#fafafa"></path></g><g id="freepik--flower--inject-123"><path d="M39.24,377.36a3,3,0,0,0-1.76-.89,3.67,3.67,0,0,0-3.45,1c-1.35,1.83,1.22,3.09,2.66,3.24a2.37,2.37,0,0,0-1.42,1.42,2.46,2.46,0,0,0,.77,2.74c1.69.95,4.33-.84,4.72-2.47.37,2.62,2,3.37,3.59,2.39,1.31-.82.85-3.23-.51-4,1.51.63,3.77-.61,3.71-2.21-.08-2-3.18-2-4.07-1.57a2.39,2.39,0,0,0,.33-1.14,3.94,3.94,0,0,0-.56-2.12,2.44,2.44,0,0,0-3.12-.52C38.3,374,38.9,376.46,39.24,377.36Z" style="fill:#36B2B8"></path><path d="M39.24,377.36a3,3,0,0,0-1.76-.89,3.67,3.67,0,0,0-3.45,1c-1.35,1.83,1.22,3.09,2.66,3.24a2.37,2.37,0,0,0-1.42,1.42,2.46,2.46,0,0,0,.77,2.74c1.69.95,4.33-.84,4.72-2.47.37,2.62,2,3.37,3.59,2.39,1.31-.82.85-3.23-.51-4,1.51.63,3.77-.61,3.71-2.21-.08-2-3.18-2-4.07-1.57a2.39,2.39,0,0,0,.33-1.14,3.94,3.94,0,0,0-.56-2.12,2.44,2.44,0,0,0-3.12-.52C38.3,374,38.9,376.46,39.24,377.36Z" style="fill:#fff;opacity:0.45"></path><path d="M40.86,380.38c.82-.06,3-.27,1.81-1.51-.85-.91-3.41-.76-4,.42S40.21,380.42,40.86,380.38Z" style="fill:#fafafa"></path></g><g id="freepik--flower--inject-123"><path d="M128.73,454.07a3,3,0,0,1,1.6-1.16,3.68,3.68,0,0,1,3.57.47c1.62,1.6-.71,3.25-2.11,3.63a2.36,2.36,0,0,1,1.63,1.18,2.45,2.45,0,0,1-.32,2.82c-1.52,1.21-4.4-.13-5-1.69,0,2.65-1.45,3.66-3.17,2.93-1.42-.59-1.35-3-.13-4.05-1.4.87-3.83,0-4-1.59-.24-2,2.82-2.5,3.76-2.2a2.46,2.46,0,0,1-.5-1.08,3.82,3.82,0,0,1,.22-2.17c.55-1.18,1.89-1.29,3-1C129.13,450.63,128.93,453.13,128.73,454.07Z" style="fill:#36B2B8"></path><path d="M128.73,454.07a3,3,0,0,1,1.6-1.16,3.68,3.68,0,0,1,3.57.47c1.62,1.6-.71,3.25-2.11,3.63a2.36,2.36,0,0,1,1.63,1.18,2.45,2.45,0,0,1-.32,2.82c-1.52,1.21-4.4-.13-5-1.69,0,2.65-1.45,3.66-3.17,2.93-1.42-.59-1.35-3-.13-4.05-1.4.87-3.83,0-4-1.59-.24-2,2.82-2.5,3.76-2.2a2.46,2.46,0,0,1-.5-1.08,3.82,3.82,0,0,1,.22-2.17c.55-1.18,1.89-1.29,3-1C129.13,450.63,128.93,453.13,128.73,454.07Z" style="fill:#fff;opacity:0.45"></path><path d="M127.85,457.16c.77-.26,2.82-1,1.37-1.92-1.05-.66-3.49.13-3.78,1.43S127.24,457.37,127.85,457.16Z" style="fill:#fafafa"></path></g><g id="freepik--flower--inject-123"><path d="M226.29,417.2a3,3,0,0,1,.26-1.95,3.63,3.63,0,0,1,2.8-2.27c2.27-.09,1.87,2.74,1.18,4a2.34,2.34,0,0,1,2-.37,2.43,2.43,0,0,1,1.83,2.17c-.16,1.93-3.12,3.11-4.69,2.51,2,1.79,1.65,3.56-.05,4.32-1.4.62-3.14-1.12-3-2.69-.33,1.61-2.63,2.78-3.91,1.83-1.62-1.2.11-3.77,1-4.25a2.47,2.47,0,0,1-1.13-.37,4,4,0,0,1-1.43-1.65,2.43,2.43,0,0,1,1.32-2.88C224.07,414.56,225.74,416.42,226.29,417.2Z" style="fill:#36B2B8"></path><path d="M226.29,417.2a3,3,0,0,1,.26-1.95,3.63,3.63,0,0,1,2.8-2.27c2.27-.09,1.87,2.74,1.18,4a2.34,2.34,0,0,1,2-.37,2.43,2.43,0,0,1,1.83,2.17c-.16,1.93-3.12,3.11-4.69,2.51,2,1.79,1.65,3.56-.05,4.32-1.4.62-3.14-1.12-3-2.69-.33,1.61-2.63,2.78-3.91,1.83-1.62-1.2.11-3.77,1-4.25a2.47,2.47,0,0,1-1.13-.37,4,4,0,0,1-1.43-1.65,2.43,2.43,0,0,1,1.32-2.88C224.07,414.56,225.74,416.42,226.29,417.2Z" style="fill:#fff;opacity:0.45"></path><path d="M227.69,420.31c.74-.37,2.66-1.38,1.1-2.09-1.13-.52-3.44.6-3.56,1.93S227.11,420.59,227.69,420.31Z" style="fill:#fafafa"></path></g><g id="freepik--flower--inject-123"><path d="M438.12,288.14a3,3,0,0,1,1.62-1.12,3.67,3.67,0,0,1,3.56.55c1.59,1.63-.78,3.24-2.19,3.58a2.35,2.35,0,0,1,1.6,1.22,2.44,2.44,0,0,1-.38,2.82c-1.54,1.16-4.4-.24-5-1.81,0,2.65-1.54,3.62-3.24,2.86-1.4-.62-1.27-3.07,0-4.06-1.41.84-3.82-.09-4-1.67-.2-2,2.87-2.44,3.81-2.12a2.37,2.37,0,0,1-.48-1.09,3.93,3.93,0,0,1,.27-2.17,2.44,2.44,0,0,1,3-.94C438.59,284.72,438.33,287.21,438.12,288.14Z" style="fill:#36B2B8"></path><path d="M438.12,288.14a3,3,0,0,1,1.62-1.12,3.67,3.67,0,0,1,3.56.55c1.59,1.63-.78,3.24-2.19,3.58a2.35,2.35,0,0,1,1.6,1.22,2.44,2.44,0,0,1-.38,2.82c-1.54,1.16-4.4-.24-5-1.81,0,2.65-1.54,3.62-3.24,2.86-1.4-.62-1.27-3.07,0-4.06-1.41.84-3.82-.09-4-1.67-.2-2,2.87-2.44,3.81-2.12a2.37,2.37,0,0,1-.48-1.09,3.93,3.93,0,0,1,.27-2.17,2.44,2.44,0,0,1,3-.94C438.59,284.72,438.33,287.21,438.12,288.14Z" style="fill:#fff;opacity:0.45"></path><path d="M436.71,291c.72.39,2.65,1.38,2.34-.29-.23-1.23-2.47-2.49-3.62-1.82S436.14,290.72,436.71,291Z" style="fill:#fafafa"></path></g><g id="freepik--flower--inject-123"><path d="M443.39,390a2.94,2.94,0,0,1,1.71-1,3.69,3.69,0,0,1,3.5.87c1.43,1.76-1.07,3.15-2.5,3.37a2.34,2.34,0,0,1,1.48,1.35,2.44,2.44,0,0,1-.63,2.78c-1.64,1-4.36-.63-4.83-2.25-.25,2.64-1.85,3.47-3.48,2.56-1.34-.75-1-3.18.32-4-1.48.7-3.8-.44-3.81-2,0-2,3.08-2.17,4-1.77a2.4,2.4,0,0,1-.38-1.12,4,4,0,0,1,.46-2.14,2.45,2.45,0,0,1,3.09-.68C444.16,386.58,443.68,389,443.39,390Z" style="fill:#36B2B8"></path><path d="M443.39,390a2.94,2.94,0,0,1,1.71-1,3.69,3.69,0,0,1,3.5.87c1.43,1.76-1.07,3.15-2.5,3.37a2.34,2.34,0,0,1,1.48,1.35,2.44,2.44,0,0,1-.63,2.78c-1.64,1-4.36-.63-4.83-2.25-.25,2.64-1.85,3.47-3.48,2.56-1.34-.75-1-3.18.32-4-1.48.7-3.8-.44-3.81-2,0-2,3.08-2.17,4-1.77a2.4,2.4,0,0,1-.38-1.12,4,4,0,0,1,.46-2.14,2.45,2.45,0,0,1,3.09-.68C444.16,386.58,443.68,389,443.39,390Z" style="fill:#fff;opacity:0.45"></path><path d="M441.65,393c.72.39,2.65,1.38,2.34-.29-.23-1.23-2.47-2.49-3.62-1.81S441.08,392.72,441.65,393Z" style="fill:#fafafa"></path></g><g id="freepik--flower--inject-123"><path d="M401.07,443.51a2.92,2.92,0,0,0-1.7-1,3.65,3.65,0,0,0-3.51.85c-1.44,1.75,1.05,3.15,2.48,3.37a2.4,2.4,0,0,0-1.49,1.35,2.45,2.45,0,0,0,.62,2.78c1.64,1,4.37-.61,4.84-2.22.24,2.64,1.84,3.48,3.47,2.58,1.34-.75,1-3.17-.3-4.05,1.48.71,3.8-.41,3.82-2,0-2-3.06-2.18-4-1.78a2.48,2.48,0,0,0,.38-1.13,3.85,3.85,0,0,0-.44-2.14,2.45,2.45,0,0,0-3.09-.69C400.32,440.14,400.78,442.6,401.07,443.51Z" style="fill:#36B2B8"></path><path d="M401.07,443.51a2.92,2.92,0,0,0-1.7-1,3.65,3.65,0,0,0-3.51.85c-1.44,1.75,1.05,3.15,2.48,3.37a2.4,2.4,0,0,0-1.49,1.35,2.45,2.45,0,0,0,.62,2.78c1.64,1,4.37-.61,4.84-2.22.24,2.64,1.84,3.48,3.47,2.58,1.34-.75,1-3.17-.3-4.05,1.48.71,3.8-.41,3.82-2,0-2-3.06-2.18-4-1.78a2.48,2.48,0,0,0,.38-1.13,3.85,3.85,0,0,0-.44-2.14,2.45,2.45,0,0,0-3.09-.69C400.32,440.14,400.78,442.6,401.07,443.51Z" style="fill:#fff;opacity:0.45"></path><path d="M402.31,446.75c.81.09,3,.27,2.05-1.16-.68-1-3.23-1.36-4-.29S401.66,446.68,402.31,446.75Z" style="fill:#fafafa"></path></g><g id="freepik--flower--inject-123"><path d="M276.8,439.81a2.93,2.93,0,0,0-2,0,3.69,3.69,0,0,0-2.66,2.44c-.41,2.24,2.45,2.25,3.81,1.76a2.33,2.33,0,0,0-.65,1.9,2.43,2.43,0,0,0,1.89,2.12c1.93.12,3.52-2.64,3.16-4.28,1.48,2.19,3.28,2.15,4.27.58.82-1.31-.64-3.27-2.22-3.4,1.64-.09,3.13-2.2,2.38-3.61-1-1.77-3.75-.43-4.35.36a2.3,2.3,0,0,0-.21-1.17,3.86,3.86,0,0,0-1.42-1.65,2.43,2.43,0,0,0-3,.89C274.5,437.23,276.11,439.15,276.8,439.81Z" style="fill:#36B2B8"></path><path d="M276.8,439.81a2.93,2.93,0,0,0-2,0,3.69,3.69,0,0,0-2.66,2.44c-.41,2.24,2.45,2.25,3.81,1.76a2.33,2.33,0,0,0-.65,1.9,2.43,2.43,0,0,0,1.89,2.12c1.93.12,3.52-2.64,3.16-4.28,1.48,2.19,3.28,2.15,4.27.58.82-1.31-.64-3.27-2.22-3.4,1.64-.09,3.13-2.2,2.38-3.61-1-1.77-3.75-.43-4.35.36a2.3,2.3,0,0,0-.21-1.17,3.86,3.86,0,0,0-1.42-1.65,2.43,2.43,0,0,0-3,.89C274.5,437.23,276.11,439.15,276.8,439.81Z" style="fill:#fff;opacity:0.45"></path><path d="M279.46,441.84c-.65.49-2.43,1.74-2.36,0,.06-1.25,2.1-2.81,3.34-2.3S280,441.45,279.46,441.84Z" style="fill:#fafafa"></path></g></g><g id="freepik--Plants--inject-123"><g id="freepik--plants--inject-123"><path d="M427.1,337.63a13.58,13.58,0,0,1,13.69-4.78c6.94,1.36,13,5.89,13.12,6.73s-6.19,5-14.45,4.42C431.37,343.44,428.49,339.13,427.1,337.63Z" style="fill:#455a64"></path><path d="M411.67,346A13.57,13.57,0,0,1,426,348c5.56,4.37,8.89,11.18,8.6,12s-7.79,1.62-14.88-2.67S412.22,348,411.67,346Z" style="fill:#455a64"></path><path d="M401.31,337.37a13.57,13.57,0,0,1,4.45-13.8c5.27-4.72,11.8-7,12.53-6.62s.34,8.79-4.14,14.72C409.25,338.14,403.34,337.17,401.31,337.37Z" style="fill:#455a64"></path><path d="M350.13,369c3.81-5.09,9.24-8.9,14.52-12.35a107.85,107.85,0,0,1,15.63-8.41,139.56,139.56,0,0,1,35.47-10.17c7.75-1.12,16-2,23.79-.58.17,0,.18.45,0,.45-9.68,0-14.45.92-21.48,2.08a130.25,130.25,0,0,0-18.85,4.26,133.88,133.88,0,0,0-29.89,13.51c-6.25,3.75-11.73,8.43-17.48,12.86C350.61,371.61,349.16,370.29,350.13,369Z" style="fill:#37474f"></path><path d="M397.86,342a43,43,0,0,1,4.85-8.29,24.32,24.32,0,0,1,6.49-6.46c.37-.23.14.38,0,.58a71.62,71.62,0,0,0-5,6.52,31.15,31.15,0,0,0-3.77,7.84,1.91,1.91,0,0,1-1.79,1.3A1,1,0,0,1,397.86,342Z" style="fill:#37474f"></path><path d="M399.06,341.89c4.5,0,8.09,1.21,13,3.09a40.66,40.66,0,0,1,5.53,2.65,24.26,24.26,0,0,1,5.73,4.45c.05.08.25.64.1.54a62.94,62.94,0,0,0-6.13-3.59,36.93,36.93,0,0,0-6-2.52,58,58,0,0,0-12.58-2.86C397.85,343.55,398.28,341.89,399.06,341.89Z" style="fill:#37474f"></path><path d="M386.63,353.76a13.57,13.57,0,0,1,14.46-1c6.35,3.12,11,9.08,10.91,9.92s-7.27,3.21-15.1.5C389.24,360.48,387.58,355.57,386.63,353.76Z" style="fill:#455a64"></path><path d="M373.44,352.36c4.41-.91,8.16-.51,13.36.31a39.5,39.5,0,0,1,6,1.44,23.94,23.94,0,0,1,6.53,3.16c.07.06.38.57.21.5a61.9,61.9,0,0,0-6.74-2.23,36.56,36.56,0,0,0-6.36-1.22,57.82,57.82,0,0,0-12.9-.17C372.6,354.24,372.67,352.52,373.44,352.36Z" style="fill:#37474f"></path><path d="M337.65,376.34c5.4-7.84,16.8-18.69,35-16.35s31.38,16.56,34.26,24.45c1,3.35-1.63,2.09-5.79,3.69-2.07.79-9.2,4.12-19.29,8.92C369.6,402.88,341.52,404.08,337.65,376.34Z" style="fill:#36B2B8"></path><path d="M337.65,376.34c5.4-7.84,16.8-18.69,35-16.35s31.38,16.56,34.26,24.45c1,3.35-1.63,2.09-5.79,3.69-2.07.79-9.2,4.12-19.29,8.92C369.6,402.88,341.52,404.08,337.65,376.34Z" style="opacity:0.2"></path><path d="M340.67,377.22c5.87-4.63,14.22-6.32,21.53-6.79A57.52,57.52,0,0,1,383.89,373a31.87,31.87,0,0,1,5.24,2.34,27.76,27.76,0,0,1,4.65,3.36c.15.13.22.75-.11.65-8.81-2.61-17.61-5.27-26.89-5.43a59,59,0,0,0-12.85,1.24c-2,.42-4,.93-6,1.48-2.39.67-4.71,1.59-7.14,2.08C340,378.91,340.3,377.51,340.67,377.22Z" style="opacity:0.2"></path><path d="M321.11,381c7.67-2.91,33.15-4.41,45.5,8.9s7.16,34.75,2.89,42c-1.92,2.94-2.65.07-6.52-2.12-1.93-1.09-5.05-4.76-19.15-9.22C330.9,416.48,305.15,405.25,321.11,381Z" style="fill:#36B2B8"></path><path d="M321.11,381c7.67-2.91,33.15-4.41,45.5,8.9s7.16,34.75,2.89,42c-1.92,2.94-2.65.07-6.52-2.12-1.93-1.09-5.05-4.76-19.15-9.22C330.9,416.48,305.15,405.25,321.11,381Z" style="fill:#fff;opacity:0.30000000000000004"></path><path d="M325.13,381.61c7.48.11,15,4.08,21,8.32a57.9,57.9,0,0,1,15.18,15.71,32.78,32.78,0,0,1,2.59,5.12,28.67,28.67,0,0,1,1.48,5.54c0,.2-.3.73-.5.45-5.18-7.59-10.33-15.22-17.42-21.2a58.58,58.58,0,0,0-10.75-7.15c-1.81-.94-3.68-1.8-5.55-2.62-2.28-1-4.66-1.73-6.86-2.89C323.55,382.5,324.67,381.6,325.13,381.61Z" style="fill:#36B2B8;opacity:0.7000000000000001"></path><path d="M339.92,436.72a12.88,12.88,0,0,1,11.35,7.75c2.87,6,2.82,13.23,2.24,13.78s-7.28-1.9-11.5-8.52S339.56,438.62,339.92,436.72Z" style="fill:#455a64"></path><path d="M324.85,429.68a12.87,12.87,0,0,1,6.56,12.07c-.21,6.69-3.52,13.06-4.29,13.29s-5.62-5-6.34-12.83C320.07,434.56,323.66,431.21,324.85,429.68Z" style="fill:#455a64"></path><path d="M325.61,416.92a12.88,12.88,0,0,1,13-4.37c6.56,1.36,12,5,12.09,5.83s-6.51,5.2-13.55,5.12C329.49,423.41,326.9,418.36,325.61,416.92Z" style="fill:#455a64"></path><path d="M272.7,395.73c6,0,12,2,17.58,4.12a100.45,100.45,0,0,1,15.2,7.18,131.58,131.58,0,0,1,27.71,21.3c5.21,5.27,10.56,11.09,13.83,17.8.07.14-.24.39-.34.26A104.62,104.62,0,0,0,333,431.19a123.61,123.61,0,0,0-13.85-12,127.06,127.06,0,0,0-27.11-15.18c-6.37-2.65-13-4.19-19.64-6.08A1.13,1.13,0,0,1,272.7,395.73Z" style="fill:#37474f"></path><path d="M320.17,416.88a40.44,40.44,0,0,1,9-1,23.11,23.11,0,0,1,8.58,1.31c.38.16-.21.33-.47.3a69.44,69.44,0,0,0-7.77-.14,29.48,29.48,0,0,0-8.1,1.55,1.84,1.84,0,0,1-2-.64A1,1,0,0,1,320.17,416.88Z" style="fill:#37474f"></path><path d="M320.89,417.75c2.51,3.45,3.64,6.85,5,11.65a38.24,38.24,0,0,1,1.1,5.7,23,23,0,0,1-.17,6.87c0,.09-.34.56-.35.38a60.07,60.07,0,0,0-.72-6.69,35,35,0,0,0-1.43-6,55.47,55.47,0,0,0-4.9-11.19C319,417.77,320.46,417.16,320.89,417.75Z" style="fill:#37474f"></path><path d="M304.86,415a12.87,12.87,0,0,1,8.93,10.44c1.2,6.59-.72,13.51-1.42,13.89s-6.54-3.74-8.88-11.23C301.2,420.73,304,416.7,304.86,415Z" style="fill:#455a64"></path><path d="M298.5,404.12c3.17,2.85,5,5.94,7.28,10.36a37.62,37.62,0,0,1,2.26,5.35,22.91,22.91,0,0,1,1.27,6.75c0,.09-.22.61-.26.45a61.13,61.13,0,0,0-2.1-6.4,35.69,35.69,0,0,0-2.65-5.53,54.32,54.32,0,0,0-7.12-9.92C296.61,404.54,298,403.63,298.5,404.12Z" style="fill:#37474f"></path></g><g id="freepik--plants--inject-123"><path d="M65.33,318.58a13.59,13.59,0,0,0-13.79-4.51c-6.91,1.49-12.89,6.14-13,7s6.28,4.87,14.53,4.14C61.17,324.48,64,320.11,65.33,318.58Z" style="fill:#455a64"></path><path d="M80.92,326.66a13.61,13.61,0,0,0-14.33,2.28c-5.47,4.48-8.66,11.35-8.36,12.14s7.82,1.47,14.82-2.95S80.41,328.64,80.92,326.66Z" style="fill:#455a64"></path><path d="M91.11,317.82a13.59,13.59,0,0,0-4.72-13.71c-5.36-4.61-11.93-6.81-12.66-6.37s-.17,8.79,4.43,14.64C83.18,318.75,89.07,317.66,91.11,317.82Z" style="fill:#455a64"></path><path d="M142.89,348.47c-3.91-5-9.41-8.73-14.76-12.07a107.36,107.36,0,0,0-15.79-8.1,138.9,138.9,0,0,0-35.66-9.48c-7.77-1-16.07-1.71-23.8-.13-.16,0-.17.45,0,.45a110.52,110.52,0,0,1,21.53,1.67,130.53,130.53,0,0,1,18.92,3.89,133.91,133.91,0,0,1,30.15,12.93c6.31,3.63,11.89,8.2,17.72,12.52C142.46,351.08,143.88,349.73,142.89,348.47Z" style="fill:#37474f"></path><path d="M94.64,322.35a42.42,42.42,0,0,0-5-8.2A24.31,24.31,0,0,0,83,307.82c-.37-.22-.13.38,0,.58a72,72,0,0,1,5.12,6.42,31.17,31.17,0,0,1,3.92,7.77,1.92,1.92,0,0,0,1.82,1.26A1,1,0,0,0,94.64,322.35Z" style="fill:#37474f"></path><path d="M93.45,322.3c-4.5.12-8.07,1.36-12.94,3.34A40.15,40.15,0,0,0,75,328.4,24,24,0,0,0,69.39,333c0,.08-.24.64-.1.54a63.12,63.12,0,0,1,6.07-3.71,37,37,0,0,1,5.91-2.64,57.68,57.68,0,0,1,12.52-3.09C94.68,323.94,94.23,322.28,93.45,322.3Z" style="fill:#37474f"></path><path d="M106.1,333.93a13.57,13.57,0,0,0-14.48-.77c-6.29,3.25-10.85,9.3-10.71,10.13s7.33,3.07,15.11.21C103.63,340.7,105.19,335.75,106.1,333.93Z" style="fill:#455a64"></path><path d="M119.27,332.28c-4.43-.83-8.18-.36-13.36.56a40.72,40.72,0,0,0-5.93,1.55,24.12,24.12,0,0,0-6.47,3.29c-.06.06-.37.58-.2.5a64.84,64.84,0,0,1,6.7-2.36,37.14,37.14,0,0,1,6.33-1.34,58,58,0,0,1,12.89-.42C120.13,334.13,120,332.42,119.27,332.28Z" style="fill:#37474f"></path><path d="M152.85,354.64c-6.3-7.13-18.93-16.52-36.73-12s-29.14,20.24-31,28.42c-.63,3.45,1.87,1.88,6.19,3,2.15.54,9.63,3,20.22,6.52C124.35,384.85,152.37,382.64,152.85,354.64Z" style="fill:#36B2B8"></path><path d="M152.85,354.64c-6.3-7.13-18.93-16.52-36.73-12s-29.14,20.24-31,28.42c-.63,3.45,1.87,1.88,6.19,3,2.15.54,9.63,3,20.22,6.52C124.35,384.85,152.37,382.64,152.85,354.64Z" style="opacity:0.2"></path><path d="M150,355.88c-6.38-3.89-14.88-4.56-22.19-4.14a57.47,57.47,0,0,0-21.21,5.2,32.7,32.7,0,0,0-4.92,2.95,27.78,27.78,0,0,0-4.21,3.9c-.14.15-.13.78.18.64,8.43-3.66,16.85-7.37,26-8.65a58.67,58.67,0,0,1,12.91-.32c2,.17,4.07.43,6.09.74,2.46.38,4.87,1,7.34,1.21C150.84,357.47,150.36,356.12,150,355.88Z" style="opacity:0.2"></path><path d="M200.2,386c-7.93-2.07-33.42-.85-44.29,13.69-11,14.71-3.42,35.32,1.59,42.06,2.22,2.71,2.65-.21,6.26-2.81,1.8-1.29,4.51-5.27,18.06-11.2C194.24,422.27,218.65,408.38,200.2,386Z" style="fill:#36B2B8"></path><path d="M200.2,386c-7.93-2.07-33.42-.85-44.29,13.69-11,14.71-3.42,35.32,1.59,42.06,2.22,2.71,2.65-.21,6.26-2.81,1.8-1.29,4.51-5.27,18.06-11.2C194.24,422.27,218.65,408.38,200.2,386Z" style="fill:#fff;opacity:0.30000000000000004"></path><path d="M196.27,387c-7.42.91-14.51,5.65-20,10.51a57.87,57.87,0,0,0-13.42,17.23,33.11,33.11,0,0,0-2,5.37,28.49,28.49,0,0,0-.88,5.67c0,.2.37.69.54.39,4.35-8.1,8.65-16.23,15.07-22.93a58.25,58.25,0,0,1,9.93-8.26c1.7-1.12,3.46-2.18,5.24-3.19,2.16-1.23,4.44-2.22,6.51-3.61C197.94,387.7,196.73,386.93,196.27,387Z" style="fill:#36B2B8;opacity:0.7000000000000001"></path><path d="M113,406.08a11.42,11.42,0,0,0-11.58,3.8c-3.94,4.45-5.67,10.58-5.31,11.2s6.68.17,11.9-4.43A13.38,13.38,0,0,0,113,406.08Z" style="fill:#455a64"></path><path d="M127.53,403.79a11.42,11.42,0,0,0-8.57,8.67c-1.47,5.76-.22,12,.38,12.39s6-2.9,8.57-9.38A13.36,13.36,0,0,0,127.53,403.79Z" style="fill:#455a64"></path><path d="M131.41,392.28a11.45,11.45,0,0,0-10.62-6c-6,.1-11.3,2.39-11.51,3.07s4.8,5.62,11,6.72C126.94,397.29,130,393.32,131.41,392.28Z" style="fill:#455a64"></path><path d="M180.35,387.7c-5.15-1.44-10.72-1.22-16-.82a89.37,89.37,0,0,0-14.73,2.38,116.78,116.78,0,0,0-28.87,11.33c-5.74,3.2-11.73,6.84-16.17,11.76-.1.1.11.39.22.3a93.09,93.09,0,0,1,15.4-9.58A110,110,0,0,1,135,396.28,112.48,112.48,0,0,1,161.81,390c6.08-.69,12.13-.37,18.23-.34A1,1,0,0,0,180.35,387.7Z" style="fill:#37474f"></path><path d="M136.15,393.15a35.86,35.86,0,0,0-7.72-2.35,20.38,20.38,0,0,0-7.7-.28c-.35.07.14.31.36.34A58.37,58.37,0,0,1,127.9,392a25.66,25.66,0,0,1,6.79,2.69,1.63,1.63,0,0,0,1.85-.22A.85.85,0,0,0,136.15,393.15Z" style="fill:#37474f"></path><path d="M133.84,394.6c-3,2.32-4.78,4.94-7.1,8.7a34.1,34.1,0,0,0-2.33,4.59,20.13,20.13,0,0,0-1.55,5.9c0,.08.15.56.2.41a55.56,55.56,0,0,1,2.26-5.53A31.62,31.62,0,0,1,128,404a48.27,48.27,0,0,1,6.94-8.33C135.49,395.09,134.36,394.2,133.84,394.6Z" style="fill:#37474f"></path><path d="M148.2,396.17A11.44,11.44,0,0,0,138,402.86c-2.64,5.33-2.72,11.7-2.21,12.2s6.49-1.58,10.33-7.38A13.4,13.4,0,0,0,148.2,396.17Z" style="fill:#455a64"></path><path d="M156.29,388.5c-3.41,1.65-5.71,3.83-8.76,7a32.74,32.74,0,0,0-3.24,4,20.16,20.16,0,0,0-2.75,5.45c0,.08,0,.58.11.44a54.73,54.73,0,0,1,3.37-4.93,30.23,30.23,0,0,1,3.62-4.06,48,48,0,0,1,8.52-6.7C157.8,389.33,156.88,388.22,156.29,388.5Z" style="fill:#37474f"></path></g></g><g id="freepik--Earth--inject-123"><g id="freepik--earth--inject-123"><g id="freepik--earth--inject-123"><g id="freepik--World--inject-123"><path d="M218.47,98.57A154,154,0,1,1,107.87,286.2,154,154,0,0,1,218.47,98.57Z" style="fill:#36B2B8"></path><path d="M218.47,98.57A154,154,0,1,1,107.87,286.2,154,154,0,0,1,218.47,98.57Z" style="fill:#fff;opacity:0.2"></path><path d="M202.46,309.5c.13-2.26,1-4.43,1.15-6.68.24-3.18-1.46-6.35-4.78-6.76-6.69-.83-10.39.81-17.66-4.18-3.28-2.24-7.53-5.17-11.69-5-2.11.1-4.12,1.1-6.24,1.05a17,17,0,0,1-5.07-1.42c-5-1.79-10.34-2-15.61-2.18a3.09,3.09,0,0,0-3.43,1.77c-2.24,3.37-4.7,6.22-9.2,5a8.06,8.06,0,0,1-5.24-4.67,5,5,0,0,0-1.16-2.12c-1-.82-2.58-.38-3.8-.86-2.33-.93-1.85-3.7-.71-5.33a4.27,4.27,0,0,0,.77-1.25,2.1,2.1,0,0,0-.51-1.84,6.21,6.21,0,0,0-1.57-1.21c-.67-.41-1.62-.79-2.16-.22a2.13,2.13,0,0,0-.35,1.4c-.13,2.42-2.79,6.25-5.48,4.56a7,7,0,0,1-2.13-2.58,16.47,16.47,0,0,1-2.51-6.87c-.32-4.57,4.34-8.42,8.18-10.12,1.43-.64,2.15-1.81,3.61-2.41l3-1.22a8.93,8.93,0,0,1,2.2-.69c2.66-.36,5.08,1.71,6.46,4a12.48,12.48,0,0,0,1.36,2.09,2.67,2.67,0,0,0,2.21.95c.12-2.62-1.05-5.1-1.81-7.61-2.61-8.61,6.93-14.4,9-22.17,1.71-6.51,4.68-5.56,10.63-6.2a2.53,2.53,0,0,0,1.21-.34,2.37,2.37,0,0,0,.68-.94c1-2.13,1.12-4.42,1.8-6.64.33-1.06,2.8-3.13,1.84-4.12s-6.07,3-6.93.89a2.11,2.11,0,0,1,1.16-2.37,22.91,22.91,0,0,0,2.57-1.3c.92-.7,1.4-1.84,2.2-2.67s2.3-1.28,3-.4c.9,1.08-.14,3.12,1,4a2.22,2.22,0,0,0,1.79.16,15.65,15.65,0,0,0,3.51-1.2c0-3.58-1.86-6-4.11-8.53-1.44-1.6-3.94-3.36-4.38-5.52s1.17-5,.16-6.92a3.18,3.18,0,0,0-5.29-.37c-.38.49-.64,1.06-1.06,1.51-.9.92-2.35,1.07-3.35,1.88-2.42,1.92-3.62,5.33-4.9,8a14.91,14.91,0,0,0-1.6,4.54c-.25,2,.33,4.1.2,6.15S138,216.9,135.94,217c-1.74.1-3.14-1.37-4.15-2.79s-2-3-3.73-3.5a4.57,4.57,0,0,1-2-.67,2.06,2.06,0,0,1-.54-1.57c.07-2.54,2.43-4.3,4.41-5.89,6-4.77,8.68-11.35,13.36-17.1.47-.58,1.23-1.2,1.87-.81a1.4,1.4,0,0,1,.54.88,5.7,5.7,0,0,1-.58,4.33c-.19.32-.38.79-.07,1a.73.73,0,0,0,.36.07,4.15,4.15,0,0,0,3.71-2.46,6.4,6.4,0,0,1,.69-1.53,3.24,3.24,0,0,1,2-1,5.13,5.13,0,0,0,2.15-.72,1.48,1.48,0,0,0,.46-2,3.61,3.61,0,0,0-1-.65c-1.3-.79-1.69-2.51-1.62-4,.11-2.1,2.51-6.73.62-8.34-2.41-2-6.5,1.72-7.93,3.29-3.8,4.17-8.77,9.48-14.09,11.63a63.33,63.33,0,0,1-15.82,4.36l-.25,0a153.28,153.28,0,0,0-6.46,96.58c.1.39.21.77.31,1.15,3.7-.25,6.37-1.68,10.09-.33,3.11,1.13,4.08,3.57,6.71,5.12a16.82,16.82,0,0,0,11.09,2.61,1.55,1.55,0,0,1,1,.14,1.53,1.53,0,0,1,.55,1.14c.5,3.87-1.43,7.55-1.38,11.38.06,4.4.45,6.75,6.09,13.73s16.09,10.59,19.6,12.83.71,7.27,4,13.39c3,5.51,5.12,11.48,8.11,17,3.91,7.22,8.4,12.58,15.58,16.64,6.23,3.54,2.8-6.1,1.24-8.74a5.57,5.57,0,0,1-1.06-2.42,6.16,6.16,0,0,1,.37-1.89c.54-2.22-.11-4.52-.48-6.77s-.39-4.81,1.12-6.52c1-1.1,2.46-1.7,3.2-3,1-1.72.25-3.93.66-5.88.33-1.55,1.38-2.83,2.17-4.21,1.62-2.83-.6-7.07,1.67-9.33,3.68-3.67,6.75-7.35,5.76-12.89C203.67,316.09,202.27,312.86,202.46,309.5ZM184.3,174.25c-.42.74-2.25,4.58-2.23,5.23-.75.8-1.94,1.56-1.74,2.64.15.89,1.18,1.32,2.07,1.49,2.61.48,5.74-.23,7-2.58s2.28-9-1.55-9.26C186.09,171.65,185.07,172.92,184.3,174.25Zm-31-18.51a9.77,9.77,0,0,1,4.5,5.89c.6,2.26.39,4.78,1.62,6.77a16,16,0,0,0,2.71,2.81,15.38,15.38,0,0,1,2.53,3.92,21.18,21.18,0,0,1,2.5,5.9c.57,2.59.21,5,3.85,3.66,2.86-1.06,4.31-4.21,5.13-7.15s1.4-6.14,3.51-8.34c1.24-1.29,2.89-2.11,4.27-3.25a21.81,21.81,0,0,0,3.17-3.48,9.47,9.47,0,0,0,1.82-3c.26-.87.27-1.79.47-2.67.43-2,2.07-3.18,2.7-5.13a17.26,17.26,0,0,0,.62-5.68c-.08-3.07-.43-6.24.59-9.14.39-1.14,1-2.2,1.3-3.36a7.48,7.48,0,0,0,.18-2.75,3.17,3.17,0,0,0-.7-1.74,2.88,2.88,0,0,0-3.12-.41,23.59,23.59,0,0,0-2.86,1.69c-3.31,1.88-7.38,1.43-11.14,2a19.94,19.94,0,0,0-9.39,4.14c-1.34,1.08-2.53,2.33-3.94,3.31-2.61,1.81-5.57,2.28-8.48,2.91a20.21,20.21,0,0,0-5.06,1.63c-2.56,1.31-3.49,3.25-2.61,6S150.92,154.37,153.3,155.74ZM316.78,168.4a1,1,0,0,1-.37.85,2,2,0,0,0-.25.14c-.26.24,0,.71.39.76a3.9,3.9,0,0,0,1.05-.17c1.31-.19,1.75.4,2.91-.75a3.87,3.87,0,0,0,1.29-2.83c-.23-2.8-4.63-2.68-4.74-5.05,0-.75.59-1.5.3-2.19-.7.22-1.29-.5-1.87-.95a2.08,2.08,0,0,0-1.7-.45,1.3,1.3,0,0,0-1,1.31,2,2,0,0,0,.14.47l.22.45a3.06,3.06,0,0,1,.23,1.49,4.24,4.24,0,0,0-.05.87C313.64,164.73,316.83,166,316.78,168.4Zm-3.92-2.76a.74.74,0,0,0-.83.32,1.23,1.23,0,0,0-.07.66c0,.26.05,1-.43.77a.66.66,0,0,0-.32-.12.36.36,0,0,0-.25.29,1.62,1.62,0,0,0,.12.78l.24.73a2.14,2.14,0,0,0,.4.78.93.93,0,0,0,.73.31,1.76,1.76,0,0,0,1.3-.82,3,3,0,0,0-.18-3.09A1.19,1.19,0,0,0,312.86,165.64Zm93.24,43.53-.48-1.75a60.72,60.72,0,0,1-8.4-6,14.09,14.09,0,0,1-1.59-1.4c-.49-.5-.89-1.09-1.42-1.55A9.72,9.72,0,0,0,392,197.2a33.58,33.58,0,0,1-4.87-2.8c-.84-.59-1.76-1.6-1.28-2.52,1.58-.68,3.33.21,4.81,1.06,4.43,2.56,8.79,5.29,13.09,8.07a154.74,154.74,0,0,0-7.85-19.88l-.5-.23c-1.31-.65-.95-1.07-.25-1.33A153.47,153.47,0,0,0,344,120.64a5.33,5.33,0,0,0-.88,1.24c-1.21,2.35-1.92,4.94-3.1,7.35-1.06,2.16-3.17,5.31-6,4.36a2.27,2.27,0,0,1-1.63-2.7,2.92,2.92,0,0,1,1-1.16,10.25,10.25,0,0,1,3.14-1.6,3.06,3.06,0,0,0,1-.41.91.91,0,0,0,.37-1c-.21-.56-.95-.57-1.53-.49-3.33.43-9.92-.94-12.57,1.32-1.1.92-1.17,2.38-1.49,3.7-.63,2.58-2.26,4.76-3.19,7.23-1.09,2.83-.86,6.15-1,9.18a7.25,7.25,0,0,0,.48,3.93,3.67,3.67,0,0,0,3,1.85c1.49,0,2.84-.83,4.13-1.59,2.17-1.31,4.42-1.25,3.71-4.39-.87-4-1.9-7-.48-11.17a1.92,1.92,0,0,1,1.87,1,4.51,4.51,0,0,1,.48,2.2c.06,2.58-.49,5.38.87,7.59a26,26,0,0,0,2,2.36,3.35,3.35,0,0,1,.79,2.87c-.42,1.47-2.19,2-3.7,2.07a13.64,13.64,0,0,1-4.66-.63c-.73,1.43.08,3.13.83,4.57,1.42,2.69,1.19,6.56-1.35,8.51a8.74,8.74,0,0,0-2,1.78c-1.66,2.39.77,2.45,2.13,3.67s1.91,3.92-.27,4.84c-.54.25-1.17.22-1.71.47a2.41,2.41,0,0,0-1,2.83,6.47,6.47,0,0,0,1.87,2.61,9.25,9.25,0,0,0,4.23,2.7,5.25,5.25,0,0,0,6.08-4.21c.19-1.32-.11-2.81.7-3.87s2.48-1.19,3.86-1.57a35.29,35.29,0,0,0,3.42-1.17c1.09-.4,2.19-1.37,3.45-.89a3.74,3.74,0,0,1,1.28,1,34.49,34.49,0,0,1,3,3.84c.8,1.21,1.89,2,2.35,3.42A14.3,14.3,0,0,1,354,185c.08.63.17,1.26.25,1.87.53,0,.82-.64,1-1.16s.32-1.11.8-1.33c.18-.07.37-.1.54-.17.75-.34-1.84-3.79-2.13-4.38a26,26,0,0,1-1.69-4.15.56.56,0,0,1,0-.42.45.45,0,0,1,.38-.22c.74-.09,1.33.56,1.78,1.14,1,1.27,2,2.51,3,3.78a10.65,10.65,0,0,1,1.85,3c.21.54.46,1.24,1,1.27a1.06,1.06,0,0,0,.89-.57,5.49,5.49,0,0,0,.64-2.3,4.73,4.73,0,0,1,.74-2.25,1.7,1.7,0,0,1,2.12-.55,3.46,3.46,0,0,1,.72.76c2,2.38,4.51,1.37,6.51-.58a2.88,2.88,0,0,1,1-.74,1.64,1.64,0,0,1,1.58.44,5,5,0,0,1,.94,1.42c1.32,2.65,2.68,5.5,2.21,8.42a1.94,1.94,0,0,1-.26.79,2.13,2.13,0,0,1-.91.61,6.57,6.57,0,0,1-4.23.56,26.47,26.47,0,0,1-3.45-1.73c-1.19-.5-2.81-.51-3.52.57s-.59,1.75-1.75,2.45c-4,2.41-9,.07-13-1.24a29.65,29.65,0,0,0-17-.74,14.45,14.45,0,0,0-5.93,2.84,18.11,18.11,0,0,0-3.47,4.56,170.55,170.55,0,0,0-9.76,18.72c-2,4.56-3.9,9.64-2.49,14.41.92,3.08,3.09,5.58,5.2,8,2.62,3,5.18,6.93,8.26,9.44,2.7,2.2,5.52,2.72,7.24,6.22a3.87,3.87,0,0,0,1.13,1.65,3.11,3.11,0,0,0,1.62.42,19.1,19.1,0,0,0,12.76-4.14c1.95-1.56,3.67-3.57,6.06-4.35,3.81-1.24,7.79,1.08,11.13,3.3,6.25,4.14,4.9,13.38,5.7,19.74.57,4.38,2.39,8.49,4.25,12.5a235.12,235.12,0,0,0,17.49,31.72,8,8,0,0,0,1.68,1.92A153.47,153.47,0,0,0,406.1,209.17Zm-25.36-38c-2.47,2.53-6.71.47-9.58,2.07a16.46,16.46,0,0,1-1.84,1.09,1.81,1.81,0,0,1-2-.25,2.3,2.3,0,0,1-.48-1.67c0-.42.06-.86.05-1.21,0-1.43-.19-2.86-.33-4.27a.62.62,0,0,1,.06-.42.61.61,0,0,1,.26-.18,2,2,0,0,1,1.94.31c.32.25.56.61.89.85a1,1,0,0,0,1.14.06c.48-.42.05-1.31.48-1.8s1-.26,1.54-.06l7.13,2.83a2.38,2.38,0,0,1,1,.59A1.61,1.61,0,0,1,380.74,171.14Z" style="fill:#36B2B8"></path><path d="M202.46,309.5c.13-2.26,1-4.43,1.15-6.68.24-3.18-1.46-6.35-4.78-6.76-6.69-.83-10.39.81-17.66-4.18-3.28-2.24-7.53-5.17-11.69-5-2.11.1-4.12,1.1-6.24,1.05a17,17,0,0,1-5.07-1.42c-5-1.79-10.34-2-15.61-2.18a3.09,3.09,0,0,0-3.43,1.77c-2.24,3.37-4.7,6.22-9.2,5a8.06,8.06,0,0,1-5.24-4.67,5,5,0,0,0-1.16-2.12c-1-.82-2.58-.38-3.8-.86-2.33-.93-1.85-3.7-.71-5.33a4.27,4.27,0,0,0,.77-1.25,2.1,2.1,0,0,0-.51-1.84,6.21,6.21,0,0,0-1.57-1.21c-.67-.41-1.62-.79-2.16-.22a2.13,2.13,0,0,0-.35,1.4c-.13,2.42-2.79,6.25-5.48,4.56a7,7,0,0,1-2.13-2.58,16.47,16.47,0,0,1-2.51-6.87c-.32-4.57,4.34-8.42,8.18-10.12,1.43-.64,2.15-1.81,3.61-2.41l3-1.22a8.93,8.93,0,0,1,2.2-.69c2.66-.36,5.08,1.71,6.46,4a12.48,12.48,0,0,0,1.36,2.09,2.67,2.67,0,0,0,2.21.95c.12-2.62-1.05-5.1-1.81-7.61-2.61-8.61,6.93-14.4,9-22.17,1.71-6.51,4.68-5.56,10.63-6.2a2.53,2.53,0,0,0,1.21-.34,2.37,2.37,0,0,0,.68-.94c1-2.13,1.12-4.42,1.8-6.64.33-1.06,2.8-3.13,1.84-4.12s-6.07,3-6.93.89a2.11,2.11,0,0,1,1.16-2.37,22.91,22.91,0,0,0,2.57-1.3c.92-.7,1.4-1.84,2.2-2.67s2.3-1.28,3-.4c.9,1.08-.14,3.12,1,4a2.22,2.22,0,0,0,1.79.16,15.65,15.65,0,0,0,3.51-1.2c0-3.58-1.86-6-4.11-8.53-1.44-1.6-3.94-3.36-4.38-5.52s1.17-5,.16-6.92a3.18,3.18,0,0,0-5.29-.37c-.38.49-.64,1.06-1.06,1.51-.9.92-2.35,1.07-3.35,1.88-2.42,1.92-3.62,5.33-4.9,8a14.91,14.91,0,0,0-1.6,4.54c-.25,2,.33,4.1.2,6.15S138,216.9,135.94,217c-1.74.1-3.14-1.37-4.15-2.79s-2-3-3.73-3.5a4.57,4.57,0,0,1-2-.67,2.06,2.06,0,0,1-.54-1.57c.07-2.54,2.43-4.3,4.41-5.89,6-4.77,8.68-11.35,13.36-17.1.47-.58,1.23-1.2,1.87-.81a1.4,1.4,0,0,1,.54.88,5.7,5.7,0,0,1-.58,4.33c-.19.32-.38.79-.07,1a.73.73,0,0,0,.36.07,4.15,4.15,0,0,0,3.71-2.46,6.4,6.4,0,0,1,.69-1.53,3.24,3.24,0,0,1,2-1,5.13,5.13,0,0,0,2.15-.72,1.48,1.48,0,0,0,.46-2,3.61,3.61,0,0,0-1-.65c-1.3-.79-1.69-2.51-1.62-4,.11-2.1,2.51-6.73.62-8.34-2.41-2-6.5,1.72-7.93,3.29-3.8,4.17-8.77,9.48-14.09,11.63a63.33,63.33,0,0,1-15.82,4.36l-.25,0a153.28,153.28,0,0,0-6.46,96.58c.1.39.21.77.31,1.15,3.7-.25,6.37-1.68,10.09-.33,3.11,1.13,4.08,3.57,6.71,5.12a16.82,16.82,0,0,0,11.09,2.61,1.55,1.55,0,0,1,1,.14,1.53,1.53,0,0,1,.55,1.14c.5,3.87-1.43,7.55-1.38,11.38.06,4.4.45,6.75,6.09,13.73s16.09,10.59,19.6,12.83.71,7.27,4,13.39c3,5.51,5.12,11.48,8.11,17,3.91,7.22,8.4,12.58,15.58,16.64,6.23,3.54,2.8-6.1,1.24-8.74a5.57,5.57,0,0,1-1.06-2.42,6.16,6.16,0,0,1,.37-1.89c.54-2.22-.11-4.52-.48-6.77s-.39-4.81,1.12-6.52c1-1.1,2.46-1.7,3.2-3,1-1.72.25-3.93.66-5.88.33-1.55,1.38-2.83,2.17-4.21,1.62-2.83-.6-7.07,1.67-9.33,3.68-3.67,6.75-7.35,5.76-12.89C203.67,316.09,202.27,312.86,202.46,309.5ZM184.3,174.25c-.42.74-2.25,4.58-2.23,5.23-.75.8-1.94,1.56-1.74,2.64.15.89,1.18,1.32,2.07,1.49,2.61.48,5.74-.23,7-2.58s2.28-9-1.55-9.26C186.09,171.65,185.07,172.92,184.3,174.25Zm-31-18.51a9.77,9.77,0,0,1,4.5,5.89c.6,2.26.39,4.78,1.62,6.77a16,16,0,0,0,2.71,2.81,15.38,15.38,0,0,1,2.53,3.92,21.18,21.18,0,0,1,2.5,5.9c.57,2.59.21,5,3.85,3.66,2.86-1.06,4.31-4.21,5.13-7.15s1.4-6.14,3.51-8.34c1.24-1.29,2.89-2.11,4.27-3.25a21.81,21.81,0,0,0,3.17-3.48,9.47,9.47,0,0,0,1.82-3c.26-.87.27-1.79.47-2.67.43-2,2.07-3.18,2.7-5.13a17.26,17.26,0,0,0,.62-5.68c-.08-3.07-.43-6.24.59-9.14.39-1.14,1-2.2,1.3-3.36a7.48,7.48,0,0,0,.18-2.75,3.17,3.17,0,0,0-.7-1.74,2.88,2.88,0,0,0-3.12-.41,23.59,23.59,0,0,0-2.86,1.69c-3.31,1.88-7.38,1.43-11.14,2a19.94,19.94,0,0,0-9.39,4.14c-1.34,1.08-2.53,2.33-3.94,3.31-2.61,1.81-5.57,2.28-8.48,2.91a20.21,20.21,0,0,0-5.06,1.63c-2.56,1.31-3.49,3.25-2.61,6S150.92,154.37,153.3,155.74ZM316.78,168.4a1,1,0,0,1-.37.85,2,2,0,0,0-.25.14c-.26.24,0,.71.39.76a3.9,3.9,0,0,0,1.05-.17c1.31-.19,1.75.4,2.91-.75a3.87,3.87,0,0,0,1.29-2.83c-.23-2.8-4.63-2.68-4.74-5.05,0-.75.59-1.5.3-2.19-.7.22-1.29-.5-1.87-.95a2.08,2.08,0,0,0-1.7-.45,1.3,1.3,0,0,0-1,1.31,2,2,0,0,0,.14.47l.22.45a3.06,3.06,0,0,1,.23,1.49,4.24,4.24,0,0,0-.05.87C313.64,164.73,316.83,166,316.78,168.4Zm-3.92-2.76a.74.74,0,0,0-.83.32,1.23,1.23,0,0,0-.07.66c0,.26.05,1-.43.77a.66.66,0,0,0-.32-.12.36.36,0,0,0-.25.29,1.62,1.62,0,0,0,.12.78l.24.73a2.14,2.14,0,0,0,.4.78.93.93,0,0,0,.73.31,1.76,1.76,0,0,0,1.3-.82,3,3,0,0,0-.18-3.09A1.19,1.19,0,0,0,312.86,165.64Zm93.24,43.53-.48-1.75a60.72,60.72,0,0,1-8.4-6,14.09,14.09,0,0,1-1.59-1.4c-.49-.5-.89-1.09-1.42-1.55A9.72,9.72,0,0,0,392,197.2a33.58,33.58,0,0,1-4.87-2.8c-.84-.59-1.76-1.6-1.28-2.52,1.58-.68,3.33.21,4.81,1.06,4.43,2.56,8.79,5.29,13.09,8.07a154.74,154.74,0,0,0-7.85-19.88l-.5-.23c-1.31-.65-.95-1.07-.25-1.33A153.47,153.47,0,0,0,344,120.64a5.33,5.33,0,0,0-.88,1.24c-1.21,2.35-1.92,4.94-3.1,7.35-1.06,2.16-3.17,5.31-6,4.36a2.27,2.27,0,0,1-1.63-2.7,2.92,2.92,0,0,1,1-1.16,10.25,10.25,0,0,1,3.14-1.6,3.06,3.06,0,0,0,1-.41.91.91,0,0,0,.37-1c-.21-.56-.95-.57-1.53-.49-3.33.43-9.92-.94-12.57,1.32-1.1.92-1.17,2.38-1.49,3.7-.63,2.58-2.26,4.76-3.19,7.23-1.09,2.83-.86,6.15-1,9.18a7.25,7.25,0,0,0,.48,3.93,3.67,3.67,0,0,0,3,1.85c1.49,0,2.84-.83,4.13-1.59,2.17-1.31,4.42-1.25,3.71-4.39-.87-4-1.9-7-.48-11.17a1.92,1.92,0,0,1,1.87,1,4.51,4.51,0,0,1,.48,2.2c.06,2.58-.49,5.38.87,7.59a26,26,0,0,0,2,2.36,3.35,3.35,0,0,1,.79,2.87c-.42,1.47-2.19,2-3.7,2.07a13.64,13.64,0,0,1-4.66-.63c-.73,1.43.08,3.13.83,4.57,1.42,2.69,1.19,6.56-1.35,8.51a8.74,8.74,0,0,0-2,1.78c-1.66,2.39.77,2.45,2.13,3.67s1.91,3.92-.27,4.84c-.54.25-1.17.22-1.71.47a2.41,2.41,0,0,0-1,2.83,6.47,6.47,0,0,0,1.87,2.61,9.25,9.25,0,0,0,4.23,2.7,5.25,5.25,0,0,0,6.08-4.21c.19-1.32-.11-2.81.7-3.87s2.48-1.19,3.86-1.57a35.29,35.29,0,0,0,3.42-1.17c1.09-.4,2.19-1.37,3.45-.89a3.74,3.74,0,0,1,1.28,1,34.49,34.49,0,0,1,3,3.84c.8,1.21,1.89,2,2.35,3.42A14.3,14.3,0,0,1,354,185c.08.63.17,1.26.25,1.87.53,0,.82-.64,1-1.16s.32-1.11.8-1.33c.18-.07.37-.1.54-.17.75-.34-1.84-3.79-2.13-4.38a26,26,0,0,1-1.69-4.15.56.56,0,0,1,0-.42.45.45,0,0,1,.38-.22c.74-.09,1.33.56,1.78,1.14,1,1.27,2,2.51,3,3.78a10.65,10.65,0,0,1,1.85,3c.21.54.46,1.24,1,1.27a1.06,1.06,0,0,0,.89-.57,5.49,5.49,0,0,0,.64-2.3,4.73,4.73,0,0,1,.74-2.25,1.7,1.7,0,0,1,2.12-.55,3.46,3.46,0,0,1,.72.76c2,2.38,4.51,1.37,6.51-.58a2.88,2.88,0,0,1,1-.74,1.64,1.64,0,0,1,1.58.44,5,5,0,0,1,.94,1.42c1.32,2.65,2.68,5.5,2.21,8.42a1.94,1.94,0,0,1-.26.79,2.13,2.13,0,0,1-.91.61,6.57,6.57,0,0,1-4.23.56,26.47,26.47,0,0,1-3.45-1.73c-1.19-.5-2.81-.51-3.52.57s-.59,1.75-1.75,2.45c-4,2.41-9,.07-13-1.24a29.65,29.65,0,0,0-17-.74,14.45,14.45,0,0,0-5.93,2.84,18.11,18.11,0,0,0-3.47,4.56,170.55,170.55,0,0,0-9.76,18.72c-2,4.56-3.9,9.64-2.49,14.41.92,3.08,3.09,5.58,5.2,8,2.62,3,5.18,6.93,8.26,9.44,2.7,2.2,5.52,2.72,7.24,6.22a3.87,3.87,0,0,0,1.13,1.65,3.11,3.11,0,0,0,1.62.42,19.1,19.1,0,0,0,12.76-4.14c1.95-1.56,3.67-3.57,6.06-4.35,3.81-1.24,7.79,1.08,11.13,3.3,6.25,4.14,4.9,13.38,5.7,19.74.57,4.38,2.39,8.49,4.25,12.5a235.12,235.12,0,0,0,17.49,31.72,8,8,0,0,0,1.68,1.92A153.47,153.47,0,0,0,406.1,209.17Zm-25.36-38c-2.47,2.53-6.71.47-9.58,2.07a16.46,16.46,0,0,1-1.84,1.09,1.81,1.81,0,0,1-2-.25,2.3,2.3,0,0,1-.48-1.67c0-.42.06-.86.05-1.21,0-1.43-.19-2.86-.33-4.27a.62.62,0,0,1,.06-.42.61.61,0,0,1,.26-.18,2,2,0,0,1,1.94.31c.32.25.56.61.89.85a1,1,0,0,0,1.14.06c.48-.42.05-1.31.48-1.8s1-.26,1.54-.06l7.13,2.83a2.38,2.38,0,0,1,1,.59A1.61,1.61,0,0,1,380.74,171.14Z" style="fill:#fff;opacity:0.55"></path><path d="M323.38,118.42c-65-24.32-80.93,20-47.89,51.33s92.71,45.35,102.3,27.14S371.7,136.5,323.38,118.42Z" style="fill:#fff;opacity:0.1"></path><g style="opacity:0.5"><path d="M218.24,349.87c-73.5-22.95-109.42-128.48-98.64-171.48a154,154,0,1,0,288.09,101.4C395.53,315.26,317,380.71,218.24,349.87Z" style="fill:#36B2B8"></path></g><path d="M295.26,397.1A154,154,0,0,1,146,141.12c-4.4,4.7-60,63.91-14.13,163.33,47.71,103.49,163.31,92.66,186.27,84.83A153,153,0,0,1,295.26,397.1Z" style="opacity:0.1"></path></g></g><g id="freepik--Heart--inject-123"><path d="M319.42,258.17c-20.2-10.27-44.62-4-53,19.85-9.28,26.29,13.29,62.89,83,73.14,21-23.46,36.84-61.47,25.65-87.34S328.91,238.14,319.42,258.17Z" style="fill:#36B2B8"></path><path d="M319.42,258.17c-20.2-10.27-44.62-4-53,19.85-9.28,26.29,13.29,62.89,83,73.14,21-23.46,36.84-61.47,25.65-87.34S328.91,238.14,319.42,258.17Z" style="opacity:0.2"></path><path d="M342.55,243.79c-9.85.61-19,5.58-23.13,14.38,4.07,2,10.47,7.66,11,9.65C330.5,261.81,329.53,247,342.55,243.79Z" style="fill:#36B2B8;opacity:0.6000000000000001"></path><path d="M342.55,243.79c-9.85.61-19,5.58-23.13,14.38,4.07,2,10.47,7.66,11,9.65C330.5,261.81,329.53,247,342.55,243.79Z" style="opacity:0.30000000000000004"></path><path d="M273.88,302.87c-8-18.09-.39-39.4,8.6-44.86-7,4-12.78,10.65-16.08,20-9.28,26.29,13.29,62.89,83,73.14C302.4,343.22,281.61,320.35,273.88,302.87Z" style="fill:#36B2B8;opacity:0.6000000000000001"></path><path d="M273.88,302.87c-8-18.09-.39-39.4,8.6-44.86-7,4-12.78,10.65-16.08,20-9.28,26.29,13.29,62.89,83,73.14C302.4,343.22,281.61,320.35,273.88,302.87Z" style="opacity:0.30000000000000004"></path></g><path d="M262.19,314.18c-19.93,2.06-38.58-4.12-52.06-17.47a2.17,2.17,0,1,1,3.05-3.09c14.43,14.29,34.35,19.63,56.1,15.06a2.16,2.16,0,0,1,2.58,1.67,2.19,2.19,0,0,1-1.68,2.58A77.82,77.82,0,0,1,262.19,314.18Z" style="fill:#37474f"></path><path d="M270,313h-.12a2.18,2.18,0,0,1-2-1.15,13.1,13.1,0,0,1,.54-13,2.17,2.17,0,0,1,3.65,2.35,8.16,8.16,0,0,0-1.3,4.42,16.53,16.53,0,0,1,6.1-3.73,2.17,2.17,0,0,1,1.27,4.16s-4.66,1.5-6.32,5.59A2.18,2.18,0,0,1,270,313Z" style="fill:#37474f"></path><path d="M275.73,313.94a15.55,15.55,0,0,1-6.7-1,2.17,2.17,0,0,1,1.4-4.11c3.57,1.21,5.47,1.16,7.82-.21a2.18,2.18,0,0,1,2.19,3.76A11.72,11.72,0,0,1,275.73,313.94Z" style="fill:#37474f"></path><path d="M383.1,275.36a2.17,2.17,0,0,1-2.39-3.61c17.5-13.71,26.22-32.4,24.57-52.63a2.17,2.17,0,0,1,4.33-.35c1.75,21.42-7.81,42-26.22,56.4A1.81,1.81,0,0,1,383.1,275.36Z" style="fill:#37474f"></path><path d="M383.13,275.39a2.19,2.19,0,0,1-1.72.16c-4.2-1.35-8.31,1.22-8.36,1.25a2.17,2.17,0,0,1-2.36-3.65,16.47,16.47,0,0,1,6.79-2.27,8.19,8.19,0,0,0-4.22-1.85,2.17,2.17,0,1,1,.54-4.31,13.09,13.09,0,0,1,10.29,7.95,2.14,2.14,0,0,1-.42,2.29A2,2,0,0,1,383.13,275.39Z" style="fill:#37474f"></path><path d="M378.28,281.78a13.34,13.34,0,0,1-1.94.86,2.17,2.17,0,1,1-1.47-4.09c2.56-.92,3.82-2.34,5.18-5.85a2.19,2.19,0,0,1,2.82-1.24,2.16,2.16,0,0,1,1.23,2.81C382.84,277.53,381.3,280.1,378.28,281.78Z" style="fill:#37474f"></path><circle cx="212.88" cy="225.75" r="32.57" transform="translate(-79.6 329.37) rotate(-66.19)" style="fill:#36B2B8"></circle><path d="M401.93,195.66A153.07,153.07,0,0,0,373,146.36a31.74,31.74,0,0,0,1.66,63.35A32.07,32.07,0,0,0,401.93,195.66Z" style="fill:#36B2B8"></path><path d="M250.8,194.81c1.72,7.4-6,1.39-13.41,3.1S225.69,208.43,224,201a13.76,13.76,0,1,1,26.82-6.21Z" style="fill:#263238"></path><path d="M351.7,160.27c4.25,6.3-5.11,3.44-11.42,7.69s-7.16,14-11.41,7.7a13.77,13.77,0,1,1,22.83-15.39Z" style="fill:#263238"></path><path d="M264.29,211.48c4.1-10.46,14.66-4.29,31.83-8.75,16.8-4.37,22.83-16.78,30.31-8.1,6.25,7.23,4.11,29.49-23.63,38.6C279.08,241,260.63,220.8,264.29,211.48Z" style="fill:#37474f"></path><path d="M296.12,202.73c-11.15,2.9-19.5,1.33-25.12,2.73l2.77,7.38s7,2.7,20.64-.46c16.29-3.8,24.7-12.63,24.7-12.63l-.9-7.59C313.1,194,306.78,200,296.12,202.73Z" style="fill:#fafafa"></path><path d="M271,221.72a33.25,33.25,0,0,0-3.25,1.7,31.83,31.83,0,0,0,35.09,9.81,51.52,51.52,0,0,0,10.77-4.88A39.84,39.84,0,0,0,271,221.72Z" style="fill:#ffa8a7"></path></g></g><g id="freepik--flowers-1--inject-123"><g id="freepik--flower--inject-123"><path d="M164.24,368.25a17.88,17.88,0,0,1-.34-4.37c.08-2.67-.57-10.73-4.41-15.09s-14.15-8.94-18-7.87a5.77,5.77,0,0,0-4,7c.51,2.11.84,2.86-2.21,4.72s-.14,4.21-.33,5.23-4.39,1.77-3.26,6.37,8.3,7.24,14.58,7.73C156.27,372.7,162,367.54,164.24,368.25Z" style="fill:#36B2B8"></path><path d="M164.24,368.25a17.88,17.88,0,0,1-.34-4.37c.08-2.67-.57-10.73-4.41-15.09s-14.15-8.94-18-7.87a5.77,5.77,0,0,0-4,7c.51,2.11.84,2.86-2.21,4.72s-.14,4.21-.33,5.23-4.39,1.77-3.26,6.37,8.3,7.24,14.58,7.73C156.27,372.7,162,367.54,164.24,368.25Z" style="fill:#fff;opacity:0.9"></path><path d="M165.59,366.87s-2.71-4.16-5.85-8.06-9.32-15.3-7.45-19.21c1.76-3.7,5.81-.1,7.4-1.36s1.58-4.3,4.06-2.52,4.43,8.62,5,13.3c.32,2.64-.3,10-1.27,14.1C166.72,366.35,165.59,366.87,165.59,366.87Z" style="fill:#36B2B8"></path><path d="M165.59,366.87s-2.71-4.16-5.85-8.06-9.32-15.3-7.45-19.21c1.76-3.7,5.81-.1,7.4-1.36s1.58-4.3,4.06-2.52,4.43,8.62,5,13.3c.32,2.64-.3,10-1.27,14.1C166.72,366.35,165.59,366.87,165.59,366.87Z" style="fill:#fff;opacity:0.8"></path><path d="M159.74,358.81c-2.37-2.95-6.45-10.14-7.53-15.18a25.56,25.56,0,0,1,7.28,5.16c3.84,4.36,4.49,12.42,4.41,15.09,0,.17,0,.33,0,.5C162.82,362.84,161.34,360.79,159.74,358.81Z" style="fill:#36B2B8;opacity:0.2"></path><path d="M166.48,366.92a14.33,14.33,0,0,0,.4-8,114,114,0,0,0-3-12.42c-1.19-3.56.55-6,2.6-5.28s3.35,1.16,3.35,1.16-1.28-4.26,1.31-5.91,4.29-.34,5.48.23,1.44-1.37,3.69-1.76,5.23.22,9,3.86,4,7,3.07,8.94-4.37,4-4.85,6-.31,6.69-4.88,9.85-11.61,1.81-14.12,3.45S166.48,366.92,166.48,366.92Z" style="fill:#36B2B8"></path><path d="M166.48,366.92a14.33,14.33,0,0,0,.4-8,114,114,0,0,0-3-12.42c-1.19-3.56.55-6,2.6-5.28s3.35,1.16,3.35,1.16-1.28-4.26,1.31-5.91,4.29-.34,5.48.23,1.44-1.37,3.69-1.76,5.23.22,9,3.86,4,7,3.07,8.94-4.37,4-4.85,6-.31,6.69-4.88,9.85-11.61,1.81-14.12,3.45S166.48,366.92,166.48,366.92Z" style="fill:#fff;opacity:0.9"></path><path d="M167.47,363.12a11.58,11.58,0,0,1-.4,1.37,15.66,15.66,0,0,0-.19-5.54,114,114,0,0,0-3-12.42c-1.19-3.56.55-6,2.6-5.28l.57.22a39,39,0,0,1,1.72,7.55C169.06,351.66,168.44,359,167.47,363.12Z" style="fill:#36B2B8;opacity:0.2"></path><path d="M168.34,367.15s1.95-3.62,8.64-7.29,13.72-4.81,17-4.15,6.44,4.86,6.48,6.21,1.62,2.82,1,4-2.58,1.11-2.9,2.55,1.86,3.25.55,6.68a7.14,7.14,0,0,1-4.61,4.24s1.88,4.5-2.08,6.64-9.79.54-14.24-3.73C170.18,374.66,168.34,367.15,168.34,367.15Z" style="fill:#36B2B8"></path><path d="M168.34,367.15s1.95-3.62,8.64-7.29,13.72-4.81,17-4.15,6.44,4.86,6.48,6.21,1.62,2.82,1,4-2.58,1.11-2.9,2.55,1.86,3.25.55,6.68a7.14,7.14,0,0,1-4.61,4.24s1.88,4.5-2.08,6.64-9.79.54-14.24-3.73C170.18,374.66,168.34,367.15,168.34,367.15Z" style="fill:#fff;opacity:0.8"></path><path d="M168.53,367.05l-.18.1h0s1.95-3.62,8.64-7.29a37,37,0,0,1,10.16-3.78,10.68,10.68,0,0,1-4.49,7.52C178.09,366.77,171,365.41,168.53,367.05Z" style="fill:#36B2B8;opacity:0.2"></path><path d="M167.27,370.69s6.46-.21,10.76,1.86,11.05,7.91,11.7,13.1-2.13,9.38-9.12,8.65a4,4,0,0,1-3.07,3.38c-2.92.8-5.15-2.64-5.54-4.49,0,0-1.13.66-2.51-2.21s1.12-8.84-1.55-14.47S166.06,370.69,167.27,370.69Z" style="fill:#36B2B8"></path><path d="M167.27,370.69s6.46-.21,10.76,1.86,11.05,7.91,11.7,13.1-2.13,9.38-9.12,8.65a4,4,0,0,1-3.07,3.38c-2.92.8-5.15-2.64-5.54-4.49,0,0-1.13.66-2.51-2.21s1.12-8.84-1.55-14.47S166.06,370.69,167.27,370.69Z" style="fill:#fff;opacity:0.7000000000000001"></path><path d="M189.73,385.65a10.79,10.79,0,0,1,.08,1.26c-3.65.53-8.08-1.17-11.63-4.57a39.2,39.2,0,0,1-8.46-11.59,23.52,23.52,0,0,1,8.31,1.8C182.33,374.61,189.08,380.46,189.73,385.65Z" style="fill:#36B2B8;opacity:0.2"></path><path d="M166.51,370.8a42.87,42.87,0,0,1,4.94,9.09c2.55,6.87-.09,15.2-.1,17.15s-3.42,5.51-7.68,4.8-5.24-3.11-8.29-2.46-4.58-.44-5.9-3.43-5-.62-6.88-3.48,4.17-11.11,9.44-15.14A37.48,37.48,0,0,1,166.51,370.8Z" style="fill:#36B2B8"></path><path d="M166.51,370.8a42.87,42.87,0,0,1,4.94,9.09c2.55,6.87-.09,15.2-.1,17.15s-3.42,5.51-7.68,4.8-5.24-3.11-8.29-2.46-4.58-.44-5.9-3.43-5-.62-6.88-3.48,4.17-11.11,9.44-15.14A37.48,37.48,0,0,1,166.51,370.8Z" style="fill:#fff;opacity:0.9"></path><path d="M165.05,369.58c-1.18-.23-3.81-2.28-7-2.18s-6.54-1.32-9.27-1.44-4.63,2.4-5.63,4.69-2.45,1.66-5.33,2.56-5.06,2.79-4.46,5.18c.32,1.29,1.3,1.33,1.42,3.05s-.78,4,1.9,4.6,4.86.16,6.59,1.74,5.86,3.4,8.28.18,3.11-6,5.52-6.89a16.2,16.2,0,0,0,7.27-6.54C165.86,371.72,166.37,369.84,165.05,369.58Z" style="fill:#36B2B8"></path><path d="M165.05,369.58c-1.18-.23-3.81-2.28-7-2.18s-6.54-1.32-9.27-1.44-4.63,2.4-5.63,4.69-2.45,1.66-5.33,2.56-5.06,2.79-4.46,5.18c.32,1.29,1.3,1.33,1.42,3.05s-.78,4,1.9,4.6,4.86.16,6.59,1.74,5.86,3.4,8.28.18,3.11-6,5.52-6.89a16.2,16.2,0,0,0,7.27-6.54C165.86,371.72,166.37,369.84,165.05,369.58Z" style="fill:#fff;opacity:0.8"></path><path d="M146.3,371.93a28.65,28.65,0,0,1-3.62-.51,4.49,4.49,0,0,0,.44-.77c1-2.29,2.91-4.8,5.63-4.69s6.06,1.54,9.27,1.44a10.2,10.2,0,0,1,4.44,1C159.54,369.38,154.27,372.55,146.3,371.93Z" style="fill:#36B2B8;opacity:0.2"></path><path d="M143.24,387.79a33.42,33.42,0,0,1,8.8-10.46A37.61,37.61,0,0,1,165.77,371a11.86,11.86,0,0,1-1.46,3.57,16.2,16.2,0,0,1-7.27,6.54c-2.41.88-3.09,3.67-5.52,6.89S145,389.37,143.24,387.79Z" style="fill:#36B2B8;opacity:0.2"></path><path d="M154.23,360.35c-1.1-.41-2.64-1.35-3.82-.93-.14.05-.31.16-.29.32a.37.37,0,0,0,.09.16,2.56,2.56,0,0,0,1.15.67,18.38,18.38,0,0,1,4.39,2.35c.29.2,1.22.8,1,1.25a.44.44,0,0,1-.37.16,10,10,0,0,0-2.57,0,.31.31,0,0,0-.2.15.21.21,0,0,0,.09.26.55.55,0,0,0,.28.09c.47.08,4.09.29,3.39,1.38a.71.71,0,0,1-.49.25c-2.21.5-4.51.62-6.71,1.17-.34.08-.73.22-.84.56a4.27,4.27,0,0,0,2.1,0c.82-.12,1.64-.19,2.47-.26a32.5,32.5,0,0,1,3.69-.24c.49,0,3.2.09,2.64,1.11a1.24,1.24,0,0,1-.76.51c-1,.37-2.1.68-3.11,1.11a16.91,16.91,0,0,0-3.82,2.42.48.48,0,0,0-.19.21.21.21,0,0,0,.07.26.37.37,0,0,0,.18,0,12.5,12.5,0,0,0,1.89-.81,22.32,22.32,0,0,1,2.26-.78c.78-.24,3.17-1.25,2.65.42a4.4,4.4,0,0,1-1.3,1.66l-1.95,1.93-2.4,2.38a1.45,1.45,0,0,0-.34.44c-.43,1,.92.43,1.25.21.53-.36,1-.84,1.48-1.22,1.54-1.16,3-2.34,4.5-3.59.43-.36.81-1,1.48-1.06,1.91-.06-.06,2.19-.28,2.95-.33,1.1-.67,2.19-1,3.3-.15.55-.3,1.1-.42,1.66-.07.32-.11,1.06.19,1.29s.89-1.3,1-1.57c.34-.78.67-1.55.95-2.35.23-.64.46-1.28.73-1.91.14-.36.45-1.51.93-1.54a.59.59,0,0,1,.51.31,1.62,1.62,0,0,1,.17.58,21.68,21.68,0,0,1-.17,6.43.63.63,0,0,0,.76-.14,1.71,1.71,0,0,0,.37-.75,15.94,15.94,0,0,0,.53-4.3,27.59,27.59,0,0,0-.23-4.26c-.07-.52,1.25.71,1.36.79a11.84,11.84,0,0,1,2.17,2.19c.93,1.15,1.78,2.35,2.72,3.5.21.25.49.21.56-.12a1.08,1.08,0,0,0,0-.44,12.09,12.09,0,0,0-2.39-4.52c-.46-.61-2.24-2.33-1.5-3.11,1.45-1.53,4.58,1.32,5.6,2.22s2.16,1.86,3.24,2.78c.58.5,1,1.3,1.62,1.68a.4.4,0,0,0,.26.06.29.29,0,0,0,.22-.24c.1-.47-.29-.81-.54-1.15s-.64-.87-1-1.29a17,17,0,0,0-2.19-2.3c-.12-.11-3.11-2.5-2.66-2.6a5.33,5.33,0,0,1,2.76.35c.75.24,1.84.85,2.6.48a.2.2,0,0,0,.1-.08.18.18,0,0,0,0-.16c-.19-.58-1.15-.79-1.65-1-.65-.25-1.33-.45-2-.72-2-.86.58-1,1.35-.92,2.85.15,5.68.58,8.5.95.75.1,2,.78,2.65.36l.08-.08a.23.23,0,0,0,0-.14c-.15-.65-1.27-.95-1.82-1.14a20.65,20.65,0,0,0-2.34-.62,38.42,38.42,0,0,0-4.3-.44c-.94-.1-1.87-.21-2.8-.38-.34-.06-.71-.07-.92-.38-.32-.47.07-.85.45-1.12.73-.51,1.47-1,2.24-1.46.16-.1.34-.23.33-.42a.35.35,0,0,0-.31-.29,1,1,0,0,0-.45.07c-1.63.5-3.28.93-4.95,1.31-.5.12-.88,0-.52-.53s.6-.65.88-1a19.76,19.76,0,0,0,1.9-2.54,19,19,0,0,0,2.27-5.46c.22-.89.71-2.33.18-3.16-.07-.1-.17-.21-.29-.19a.3.3,0,0,0-.15.07,2.46,2.46,0,0,0-.55,1.19,9.86,9.86,0,0,1-.56,1.52,26.42,26.42,0,0,1-2.14,3.42,73.14,73.14,0,0,1-4.65,5.73A5.32,5.32,0,0,0,170,362c.17-.49.34-1,.5-1.45a12.26,12.26,0,0,0,.4-1.47,2.08,2.08,0,0,0-.21-1.29.42.42,0,0,0-.11-.17.26.26,0,0,0-.3,0,.78.78,0,0,0-.16.28c-.28.75-1.58,6.21-2.83,5.24-.56-.44-.55-2.32-.62-2.91-.19-1.54-.22-3.48-1.34-4.69-.12-.13-.29-.26-.45-.19s-.2.36-.16.57a15.82,15.82,0,0,1,.63,4.2c-.1,1.58-1.32-.43-1.57-.87-1.13-2.09-1.79-4.34-3.75-5.85-.16-.11-.42-.2-.51,0s0,.22.07.32a26.4,26.4,0,0,1,3,5.89c.17.58,1,2.39.53,2.85s-1.63-.53-1.93-.77a23.77,23.77,0,0,0-2.52-2.1.75.75,0,0,0-.28-.11.27.27,0,0,0-.27.08.29.29,0,0,0,0,.3.75.75,0,0,0,.19.24,8.15,8.15,0,0,1,1.11,1.17c.18.28.31.6.48.89s.76,1.34.05,1.54c-.5.14-1.82-1.26-2.24-1.54A17,17,0,0,0,154.23,360.35Z" style="fill:#36B2B8;opacity:0.4"></path><path d="M170.37,375.73a2,2,0,0,1-.44-1.25c0-.33,0-.66,0-1a.85.85,0,0,0-.7-.37.61.61,0,0,0-.19.06,2.82,2.82,0,0,1,0,.58c-.07.36-.42.83-.15,1.18.12.16-.17.23-.26.12a1,1,0,0,1-.22-.61c-.15-.1-.34-.42-.58-.55a.88.88,0,0,0-.15-.05,3.65,3.65,0,0,0,.09.74,2.42,2.42,0,0,0,.67,1.13c.05.06-.09.1-.13.09a1.56,1.56,0,0,1-.79-.79,4.18,4.18,0,0,1-.33-1.21h-.11a1.46,1.46,0,0,0-.49.15c0,.06,0,.12,0,.18a6.31,6.31,0,0,1-.21,1.29c-.05.15-.33.09-.32-.06s0-.5,0-.75c-.24-.27-.29-.73-.61-1l-.2.21a1.92,1.92,0,0,0-.6,1.24,3.37,3.37,0,0,0,0,.71c0,.17.1.4-.06.51l0,0c-.2-.1-.23-.36-.27-.55a3.29,3.29,0,0,1-.11-.7,2.41,2.41,0,0,1,.37-1.38l.15-.18a1.2,1.2,0,0,0-.2,0c-.38.08-.48.05-.68-.11a2.88,2.88,0,0,1-.66,2c-.11.1-.4-.05-.29-.19a3.33,3.33,0,0,0,.46-1.83c0-.08,0-.16,0-.25-.13.06-.27.1-.39.17a1.76,1.76,0,0,0-.61.47,1.1,1.1,0,0,0-.17.81c0,.1-.21.11-.24,0a1.52,1.52,0,0,1-.12-.51,1.27,1.27,0,0,1,.09-.47,1.7,1.7,0,0,1,.6-.7,3.12,3.12,0,0,1,.43-.27,1.06,1.06,0,0,0,0-.27.79.79,0,0,0-.34-.43,5.52,5.52,0,0,0-.72.95,4.54,4.54,0,0,1-.77,1,1.8,1.8,0,0,1-1.28.48c-.11,0-.19-.14-.06-.18,1-.29,1.39-1.43,1.86-2.22a3.68,3.68,0,0,1,.37-.51.8.8,0,0,1-.18-.41l-.44.2a1.92,1.92,0,0,0-.6.36c-.11.11-.42,0-.31-.16a1.82,1.82,0,0,1,.42-.49,3.4,3.4,0,0,1,.59-.4l.21-.13a1.51,1.51,0,0,0-.11-.22h-.19a9.67,9.67,0,0,0-1.65.4,2.65,2.65,0,0,1-1.34.08c-.11,0-.13-.15,0-.17a5.3,5.3,0,0,0,1.62-.79,3.53,3.53,0,0,1,1.07-.29l0-.05a.93.93,0,0,1,0-.22l-.16,0c-.54.1-1.71.32-2-.37,0,0,.07-.07.1-.05a.83.83,0,0,0,.92.07c.4-.14.79-.31,1.2-.42a.71.71,0,0,0-.07-.4.41.41,0,0,0,0-.09,6.88,6.88,0,0,1-1.14-.6c-.09-.06-.08-.19,0-.2a1.93,1.93,0,0,1,1,.27.07.07,0,0,1,0-.06c.11-.15.37-.1.49-.31a1.15,1.15,0,0,0,.09-.58c-.14,0-.29-.08-.44-.1a3.44,3.44,0,0,0-1.39.11,3.12,3.12,0,0,1-1.32.13c-.15,0-.19-.24,0-.23.54,0,1-.5,1.46-.69a2.72,2.72,0,0,1,1.33-.11c0-.06,0-.12,0-.23s.61-.35.91-.46a4.42,4.42,0,0,1-2.13-.86c-.08-.09.11-.15.17-.1a2.68,2.68,0,0,0,1.54.38,4.11,4.11,0,0,1,.93.15,6.48,6.48,0,0,0,.29-.88,7.38,7.38,0,0,0-1.35-1.2.18.18,0,0,1,0-.26.26.26,0,0,1,.3,0,2,2,0,0,0,.64.18,1.64,1.64,0,0,1,.48.23,2.36,2.36,0,0,1,.58.64.51.51,0,0,0,.17,0c.4,0,.28-.27.43-.51a.24.24,0,0,1,.16-.12,1.5,1.5,0,0,1,.16-1c0-.05.17-.08.18,0,.06.38,0,.76.07,1.14l.06,0a.47.47,0,0,0,.59-.07.57.57,0,0,0,.19-.23,5.41,5.41,0,0,0,0-.9,1.81,1.81,0,0,0-.53-1c-.14-.18.1-.31.25-.19a2.72,2.72,0,0,1,.75.9,1.9,1.9,0,0,1,.17.65c.29.23.63.48.86.43h0a3.28,3.28,0,0,1,.24-.81c.11-.2.44,0,.41.2s0,.24-.08.36c.18.3.32.61.75.65a.59.59,0,0,0,.46-.16,5.81,5.81,0,0,0,.05-.72,1.54,1.54,0,0,0-.79-1.17c-.17-.12,0-.25.18-.16a2.16,2.16,0,0,1,.92,1,2.75,2.75,0,0,1,.18.83,1.89,1.89,0,0,1,.28.46c.11.25.16.85.53.92a5.46,5.46,0,0,1,.09-1.07,2.1,2.1,0,0,1,.38-.91c.1-.12.4,0,.31.13a2.38,2.38,0,0,0-.2,1.34c0,.14,0,.28,0,.42a.83.83,0,0,1,.25.33c.14.28.11.69.29.95h0a5.55,5.55,0,0,1,.45-1,1.5,1.5,0,0,1,.75-.68c.07,0,.28.06.2.17s-.25.32-.36.5a3.21,3.21,0,0,0-.22.54c-.08.23-.14.45-.21.68.35.12.34.34.27.61l.64-.31a.81.81,0,0,0,.36-.3,1.35,1.35,0,0,0,.15-.52c0-.11.23-.13.23,0a1.66,1.66,0,0,1-.14.76,2.25,2.25,0,0,1-.74.91,3.76,3.76,0,0,1-.5.31c.23.35.66.35.67.74a2.74,2.74,0,0,0,.39-.09,1.92,1.92,0,0,0,.51-.27,1.17,1.17,0,0,0,.27-.42c0-.09.25-.1.24,0a1.76,1.76,0,0,1-1.37,1.43l-.36.09s0,0,0,0c0,.29.28.61.44.77h0a2.54,2.54,0,0,1,1.88.6c.15.15-.15.22-.26.12-.55-.5-1.39-.18-2,0l-.08.06a1.16,1.16,0,0,0-.08.78,1.25,1.25,0,0,0,.06.18l.08,0a1.32,1.32,0,0,0,.94-.21c.16-.1.44.14.29.3a1.93,1.93,0,0,1-1.53.5,2.07,2.07,0,0,0-.6.39c-.2.23,0,.46,0,.69a2.47,2.47,0,0,0,.73,1.27c.09.07-.11.15-.17.11a2.42,2.42,0,0,1-.75-.9,3.62,3.62,0,0,1-.2-.45c-.22-.2-.4-.45-.65-.2a.7.7,0,0,0-.13.24c0,.07.06.14.08.21a4.66,4.66,0,0,1,.05,1.49,2.22,2.22,0,0,0,.25,1.43C170.74,375.78,170.44,375.83,170.37,375.73Z" style="fill:#37474f"></path><path d="M172.12,374.84a.53.53,0,1,1,.64.39A.54.54,0,0,1,172.12,374.84Z" style="fill:#37474f"></path><path d="M161.46,375.87a.53.53,0,1,1,.64.39A.54.54,0,0,1,161.46,375.87Z" style="fill:#37474f"></path><path d="M172.61,372.06a.53.53,0,1,1,.64.39A.53.53,0,0,1,172.61,372.06Z" style="fill:#37474f"></path><path d="M175.21,370.36a.54.54,0,0,1,.4-.64.53.53,0,0,1,.64.39.53.53,0,0,1-1,.25Z" style="fill:#37474f"></path><path d="M174,367.8a.53.53,0,1,1,.65.39A.53.53,0,0,1,174,367.8Z" style="fill:#37474f"></path><path d="M174,365.19a.54.54,0,0,1,.4-.64.54.54,0,0,1,.64.39.53.53,0,0,1-.39.64A.53.53,0,0,1,174,365.19Z" style="fill:#37474f"></path><path d="M159.46,372.78a.53.53,0,1,1,.65.39A.54.54,0,0,1,159.46,372.78Z" style="fill:#37474f"></path><path d="M158.05,365.35a.53.53,0,1,1,.65.39A.53.53,0,0,1,158.05,365.35Z" style="fill:#37474f"></path><path d="M172.85,362.89a.53.53,0,0,1,1-.25.54.54,0,0,1-.39.64A.52.52,0,0,1,172.85,362.89Z" style="fill:#37474f"></path><path d="M170.9,362.82a.53.53,0,1,1,1-.25.53.53,0,0,1-1,.25Z" style="fill:#37474f"></path><path d="M161,363.76a.53.53,0,0,1,1-.25.53.53,0,1,1-1,.25Z" style="fill:#37474f"></path><path d="M169.17,360.52a.53.53,0,1,1,.65.39A.54.54,0,0,1,169.17,360.52Z" style="fill:#37474f"></path><path d="M157.64,369.79a.53.53,0,0,1,1-.25.53.53,0,1,1-1,.25Z" style="fill:#37474f"></path><path d="M166,360.76a.53.53,0,1,1,.64.39A.52.52,0,0,1,166,360.76Z" style="fill:#37474f"></path><path d="M168.7,376.11a.53.53,0,1,1,.65.39A.54.54,0,0,1,168.7,376.11Z" style="fill:#37474f"></path><path d="M164.88,376.6a.54.54,0,0,1,.4-.64.53.53,0,1,1-.4.64Z" style="fill:#37474f"></path><path d="M161.72,361.39a.53.53,0,1,1,.64.39A.53.53,0,0,1,161.72,361.39Z" style="fill:#37474f"></path></g><g id="freepik--flower--inject-123"><path d="M306.74,407.5l-3.3-1.48a22,22,0,0,1-7.4,3.71c-4,1-12.33-2.43-12.38-6.34s-.11-8.69-.11-8.69-3.89.49-4.8-1.18,2.12-11.61,4-13.32a4.61,4.61,0,0,1,2.36-1.37s-.14-.57,2-1.49,4.42-4.35,6-6.66,6.15-2.47,9.06-.44,6.64,3.68,8.22,3,8.37.25,9.22,3,1.74,6.17-.22,7.48-4,5.22-4,5.22,4.23.13,4.89,3.81-1.51,11.45-5.37,12.6S306.74,407.5,306.74,407.5Z" style="fill:#36B2B8"></path><path d="M306.74,407.5l-3.3-1.48a22,22,0,0,1-7.4,3.71c-4,1-12.33-2.43-12.38-6.34s-.11-8.69-.11-8.69-3.89.49-4.8-1.18,2.12-11.61,4-13.32a4.61,4.61,0,0,1,2.36-1.37s-.14-.57,2-1.49,4.42-4.35,6-6.66,6.15-2.47,9.06-.44,6.64,3.68,8.22,3,8.37.25,9.22,3,1.74,6.17-.22,7.48-4,5.22-4,5.22,4.23.13,4.89,3.81-1.51,11.45-5.37,12.6S306.74,407.5,306.74,407.5Z" style="fill:#fff;opacity:0.75"></path><path d="M305.75,405a5.93,5.93,0,0,1-5.13,4.61c-4.35.48-14.38-9.46-9-18.37a10.4,10.4,0,0,0,6.27,9.4C304.26,403.37,305.75,405,305.75,405Z" style="fill:#36B2B8"></path><path d="M305.75,405a5.93,5.93,0,0,1-5.13,4.61c-4.35.48-14.38-9.46-9-18.37a10.4,10.4,0,0,0,6.27,9.4C304.26,403.37,305.75,405,305.75,405Z" style="fill:#fff;opacity:0.65"></path><path d="M315.78,386.54a8.73,8.73,0,0,1,4.08,2c1.58,1.57-2.79,11.69-2.79,11.69s1.62-3.34-.68-1.93-4.67,6-10.64,6.72L311,392.93S312.23,386.29,315.78,386.54Z" style="fill:#36B2B8"></path><path d="M315.78,386.54a8.73,8.73,0,0,1,4.08,2c1.58,1.57-2.79,11.69-2.79,11.69s1.62-3.34-.68-1.93-4.67,6-10.64,6.72L311,392.93S312.23,386.29,315.78,386.54Z" style="fill:#fff;opacity:0.65"></path><path d="M316.39,387s0,.36,1.87-1.21a6.38,6.38,0,0,0,1.88-5.6c-.3-1-3.7-.22-5.64-1.89s-6.33-5.38-4.73-7.44c0,0-4,1.76-2.59,5.76S315.84,384.75,316.39,387Z" style="fill:#36B2B8"></path><path d="M316.39,387s0,.36,1.87-1.21a6.38,6.38,0,0,0,1.88-5.6c-.3-1-3.7-.22-5.64-1.89s-6.33-5.38-4.73-7.44c0,0-4,1.76-2.59,5.76S315.84,384.75,316.39,387Z" style="fill:#fff;opacity:0.65"></path><path d="M306.87,375.09s2.56.78-2.34,2.2-6.7,1.85-6.7,1.85-1.13-2.32-2.87-1.55a12.6,12.6,0,0,1-8.09,0,7.63,7.63,0,0,0,4.49-3.14c1.85-2.66,3.3-3.86,7-1.45A12.27,12.27,0,0,0,306.87,375.09Z" style="fill:#36B2B8"></path><path d="M306.87,375.09s2.56.78-2.34,2.2-6.7,1.85-6.7,1.85-1.13-2.32-2.87-1.55a12.6,12.6,0,0,1-8.09,0,7.63,7.63,0,0,0,4.49-3.14c1.85-2.66,3.3-3.86,7-1.45A12.27,12.27,0,0,0,306.87,375.09Z" style="fill:#fff;opacity:0.65"></path><path d="M285.14,378.83s0-2.65,6.27-.6c2.19.71-5.5,15.16-5.5,15.16S276.94,384.82,285.14,378.83Z" style="fill:#36B2B8"></path><path d="M285.14,378.83s0-2.65,6.27-.6c2.19.71-5.5,15.16-5.5,15.16S276.94,384.82,285.14,378.83Z" style="fill:#fff;opacity:0.65"></path><path d="M286.19,393.62s-2.27.18-4.25,3.21,2.74,12.51,8.5,10.53c-3.52-8,0-13.35,0-13.35Z" style="fill:#36B2B8"></path><path d="M286.19,393.62s-2.27.18-4.25,3.21,2.74,12.51,8.5,10.53c-3.52-8,0-13.35,0-13.35Z" style="fill:#fff;opacity:0.65"></path><path d="M301.93,398s-3.32.76-4.44-3.46l-1.43-4s3-3.26,5.24-3.46,1.33,1,1.33,1-3.49.63-2.21,3.79S305.65,396.63,301.93,398Z" style="fill:#36B2B8"></path><path d="M295.22,381.44s-2.61,1.69-3.62,6.21a9.27,9.27,0,0,0,1.64,7.65s-.21-2.45,2.24-5.21,7.25-7,7.25-7S301.39,378.1,295.22,381.44Z" style="fill:#36B2B8"></path><path d="M301.62,381.6s4.09-1,6.17,2.19,1.39,7.62,3.25,9.14c0,0-1.85,2.74-3.37,1.14s-4.92-6-7.74-4.63C299.93,389.44,297.49,384,301.62,381.6Z" style="fill:#36B2B8"></path><path d="M307.16,399.13a30.45,30.45,0,0,1-3.39,1.38c-2.41.7-5-.58-6.82-2-1.7-1.33-3.37-2.71-5.16-3.9-1.34-.89-1.05-.37-2.19,0-.92.29-1.3-.21-1.38-1.15a14,14,0,0,1,.36-2.94c.25-2-.13-4,.4-5.94.88-3.3,4.21-8.13,8.2-6.14,1.18.59,1.57,1.06,2.91.68,2.61-.74,4.7-1,7.34.05a10.6,10.6,0,0,1,6.25,6.62,11.3,11.3,0,0,1,.4,4.55c-.22,2-1.39,3.38-2.39,5A9.39,9.39,0,0,1,307.16,399.13Z" style="fill:#36B2B8"></path><path d="M307.16,399.13a30.45,30.45,0,0,1-3.39,1.38c-2.41.7-5-.58-6.82-2-1.7-1.33-3.37-2.71-5.16-3.9-1.34-.89-1.05-.37-2.19,0-.92.29-1.3-.21-1.38-1.15a14,14,0,0,1,.36-2.94c.25-2-.13-4,.4-5.94.88-3.3,4.21-8.13,8.2-6.14,1.18.59,1.57,1.06,2.91.68,2.61-.74,4.7-1,7.34.05a10.6,10.6,0,0,1,6.25,6.62,11.3,11.3,0,0,1,.4,4.55c-.22,2-1.39,3.38-2.39,5A9.39,9.39,0,0,1,307.16,399.13Z" style="fill:#fff;opacity:0.5"></path><path d="M311,392.93c-.13,1-3.71,7.05-9.54,6.08s-9.92-7.73-9.92-7.73-1.5,6.74,2.75,10.73,10.75,4.42,13.42,1.87S313.46,396,311,392.93Z" style="fill:#fff"></path><path d="M297.49,394.52s-1.81-3.53,2.4-5.42,8.43-1.17,6.83-3.94-4.61-5-8.07-3A7.63,7.63,0,0,0,297.49,394.52Z" style="fill:#fff"></path><path d="M301.93,398s4.63-.28,5.83-4.16-2.09-6-6-4.64c0,0,2.62.71,2.37,4.48A6.91,6.91,0,0,1,301.93,398Z" style="fill:#fff"></path><path d="M315.83,388.91c-1.33,3.17-3.4,2.62-4.75-1.21s-2.84-7-6.21-7.33-9.65,1.07-9.65,1.07a19.69,19.69,0,0,0,4-3.95c1.6-2.25,8.09-3,12.3,0S317.61,384.68,315.83,388.91Z" style="fill:#fff"></path><path d="M298.19,378.93s-3.49.06-6.55,5-.57,9.11-3.08,11.26-4.82,0-4.87-5.16,2.46-8.41,6.27-11.37S297.66,377.23,298.19,378.93Z" style="fill:#fff"></path><path d="M316.89,386.84c1.81.62,5.93,2.86,6,7.83s1.58,5.58-2.75,8.8-4.76,5.14-13.4,4a22.45,22.45,0,0,1,3.33-1.2c3.28-1.09,4.92-5.7,7.68-9C321.36,392.93,316.89,386.84,316.89,386.84Z" style="fill:#fff"></path><path d="M303.12,408.93c1.2-1.42-1.17.45-4.95.24s-9.11-1.69-11.53-5.4a13.75,13.75,0,0,1-2.26-9.44c-.67.17-2.45,1.44-3.53,4.58-1.41,4.14,1.26,10.67,7,13.2S299.45,413.3,303.12,408.93Z" style="fill:#fff"></path><path d="M285.14,378.83a11,11,0,0,0-4.65,7.73c-.55,5.19,5.34,6.72,3.62,8s-4.06,1.46-5.92-2-2-7.6.63-10.14S282.71,377.89,285.14,378.83Z" style="fill:#fff"></path><path d="M307.65,374.46c-1.83,1.89-2.78.44-5.84-1.48s-4.66-2-8.21.79a22.93,22.93,0,0,1-6.73,3.77,7.75,7.75,0,0,0,3.14-4c1-2.86,4.92-9.24,11.62-6.14S308.47,373.61,307.65,374.46Z" style="fill:#fff"></path><path d="M318.26,385.79a7.16,7.16,0,0,0,3.08-8.84c-2-6.14-10.69-7.34-12.06-5.75s.92,4.67,2.88,4.68,6.18-.36,7.34,3.43A7.05,7.05,0,0,1,318.26,385.79Z" style="fill:#fff"></path></g></g><g id="freepik--Butterflies--inject-123"><g id="freepik--Butterfly--inject-123"><path d="M77.77,188.33c6.5-5.63,16.88-24.67,17.7-34.9s-1.44-14.16-8.82-10.9c-7.73,3.42-19.2,13.54-19.6,20.93s-.46,26-.55,25.28-7.24-15.28-14.82-14.8-12.15,11.61-3.56,17.89S67,198.76,77.77,188.33Z" style="fill:#36B2B8"></path><path d="M77.77,188.33c6.5-5.63,16.88-24.67,17.7-34.9s-1.44-14.16-8.82-10.9c-7.73,3.42-19.2,13.54-19.6,20.93s-.46,26-.55,25.28-7.24-15.28-14.82-14.8-12.15,11.61-3.56,17.89S67,198.76,77.77,188.33Z" style="opacity:0.1"></path><path d="M86.8,184.26a.41.41,0,0,1-.45-.34.42.42,0,0,1,.33-.48c.09,0,9.41-1.8,11.71-8.64.79-2.35,0-4-.91-4.68a2.35,2.35,0,0,0-2.77-.12,2.2,2.2,0,0,0-1,2.07,2.05,2.05,0,0,0,.71,1.27,1,1,0,0,0,.72.21h0a.42.42,0,0,1,.46.36.43.43,0,0,1-.35.47h0a1.77,1.77,0,0,1-1.32-.37,2.88,2.88,0,0,1-1-1.82,3,3,0,0,1,1.36-2.87,3.19,3.19,0,0,1,3.74.15c1.19.9,2.12,2.84,1.19,5.6-2.46,7.31-11.94,9.12-12.34,9.2Z" style="fill:#455a64"></path><path d="M89.1,184.77a3.05,3.05,0,1,1-3.83-2A3.05,3.05,0,0,1,89.1,184.77Z" style="fill:#455a64"></path><path d="M84,186.66c-1.59-1-10.18,7.8-8.32,9.6S86.54,188.41,84,186.66Z" style="fill:#455a64"></path><path d="M59.11,202.11s-16.57,4.9-20.57-3,.18-15.61,6.51-17.67,20.17,6.11,20.17,6.11S49.39,175.73,57.71,158c4.69-10,15.09-22.47,20.17-16.5s4.8,35,2.54,45.69A12.54,12.54,0,0,0,76.08,192C72.78,195.78,67.89,199.38,59.11,202.11Z" style="fill:#36B2B8"></path><path d="M59.11,202.11s-16.57,4.9-20.57-3,.18-15.61,6.51-17.67,20.17,6.11,20.17,6.11S49.39,175.73,57.71,158c4.69-10,15.09-22.47,20.17-16.5s4.8,35,2.54,45.69A12.54,12.54,0,0,0,76.08,192C72.78,195.78,67.89,199.38,59.11,202.11Z" style="fill:#fff;opacity:0.2"></path><path d="M75.49,143.15c-5.43-.79-14.75,13-16.5,18-2,5.68-2.41,12.2,1.11,17.72,0,0-1.68-8.13,3-11.08,0,0-1.06-8.37,7.4-9.85,0,0,3-8.9,8.53-7C79,150.87,78.27,143.55,75.49,143.15Z" style="fill:#fff;opacity:0.7000000000000001"></path><path d="M79.09,184.68c.75-1.26,1.17-28.27.29-30.63s-7.6-.14-7.41,4.5C72.13,162.39,77.94,186.62,79.09,184.68Z" style="fill:#fff;opacity:0.7000000000000001"></path><path d="M77.08,187.41c.51-.95-5.81-25.65-6.62-27.24-1.15-2.26-7.34,3.44-5.72,8.55C66.11,173,76.33,188.83,77.08,187.41Z" style="fill:#fff;opacity:0.7000000000000001"></path><path d="M75.39,190c0-1.07-4.3-6.71-7.74-12.78-2.42-4.28-3.5-6.5-4.22-6.84-1.39-.65-3.69,5.07-1,10.65S75.52,191.09,75.39,190Z" style="fill:#fff;opacity:0.7000000000000001"></path><path d="M71.89,191.77s-15-7-17.85-6.65c-3.86.47-9.34,4.87-5.65,6.58S71.94,192.52,71.89,191.77Z" style="fill:#fff;opacity:0.7000000000000001"></path><path d="M72.6,193.33c.07.66-5.84,5.37-15.12,7.23-10.81,2.17-14.72.32-16.64-1.26-2.27-1.89,2.67-7.13,6.16-6.31,3.94.93,10,1.16,16.18.7S72.77,192.19,72.6,193.33Z" style="fill:#fff;opacity:0.7000000000000001"></path><path d="M53.85,183.88A10.06,10.06,0,0,0,46.46,188c-1.09,1.78-.23,2.76-2.43,3.72-2.57,1.11-4.23,2.5-4.93,5.37-.33-.58-2.39-6.66,2.17-11.16S51.12,183.12,53.85,183.88Z" style="fill:#fff;opacity:0.7000000000000001"></path></g><g id="freepik--butterfly--inject-123"><path d="M456.12,245.92c-5.58-2.39-16.65-13-19.4-19.66s-2.09-9.83,3.58-9.22c5.93.63,15.82,5,17.68,9.85s5.91,17.4,5.81,16.88,1.58-11.83,6.78-13.14,10.67,5.19,6.24,11.27S465.59,250.62,456.12,245.92Z" style="fill:#36B2B8"></path><path d="M456.12,245.92c-5.58-2.39-16.65-13-19.4-19.66s-2.09-9.83,3.58-9.22c5.93.63,15.82,5,17.68,9.85s5.91,17.4,5.81,16.88,1.58-11.83,6.78-13.14,10.67,5.19,6.24,11.27S465.59,250.62,456.12,245.92Z" style="opacity:0.1"></path><path d="M449.18,245.13a.29.29,0,0,0-.1-.58c-.07,0-6.71.81-9.73-3.29a2.83,2.83,0,0,1-.4-3.34,1.65,1.65,0,0,1,1.84-.68,1.53,1.53,0,0,1,1.12,1.17,1.44,1.44,0,0,1-.2,1,.71.71,0,0,1-.44.3h0a.29.29,0,1,0,.11.57h0a1.27,1.27,0,0,0,.81-.53,2,2,0,0,0,.3-1.45,2.11,2.11,0,0,0-1.53-1.63,2.23,2.23,0,0,0-2.48.9c-.61.86-.82,2.37.4,4,3.22,4.38,10,3.56,10.28,3.52Z" style="fill:#455a64"></path><path d="M447.74,246a2.16,2.16,0,1,0,2.15-2.16A2.16,2.16,0,0,0,447.74,246Z" style="fill:#455a64"></path><path d="M451.6,246.13c.84-1,8.52,3.05,7.66,4.67S450.24,247.86,451.6,246.13Z" style="fill:#455a64"></path><path d="M471.64,251.17s12.2-.27,13.19-6.41-3.48-10.46-8.18-10.48-12.24,8.45-12.24,8.45,8.08-11.39-1.33-21.53c-5.3-5.71-15-11.86-17.11-6.75s4.31,24.57,8.13,31.26a9,9,0,0,1,3.95,2.31C461.09,249.86,465.15,251.23,471.64,251.17Z" style="fill:#36B2B8"></path><path d="M471.64,251.17s12.2-.27,13.19-6.41-3.48-10.46-8.18-10.48-12.24,8.45-12.24,8.45,8.08-11.39-1.33-21.53c-5.3-5.71-15-11.86-17.11-6.75s4.31,24.57,8.13,31.26a9,9,0,0,1,3.95,2.31C461.09,249.86,465.15,251.23,471.64,251.17Z" style="fill:#fff;opacity:0.4"></path><path d="M447.94,215.05c3.48-1.7,12.7,5.54,14.95,8.53,2.55,3.4,4.25,7.69,3.07,12.15,0,0-.62-5.82-4.38-6.8,0,0-1.09-5.86-7.09-5,0,0-3.94-5.34-7.25-2.91C447.24,221,446.15,215.91,447.94,215.05Z" style="fill:#fff;opacity:0.7000000000000001"></path><path d="M454.45,243.75c-.77-.69-6.87-18.75-6.78-20.54s5.08-1.73,5.95,1.44C454.34,227.26,455.64,244.8,454.45,243.75Z" style="fill:#fff;opacity:0.7000000000000001"></path><path d="M456.39,245.15c-.55-.52-1.61-18.5-1.41-19.74.29-1.76,5.68.73,5.68,4.52C460.67,233.12,457.2,245.94,456.39,245.15Z" style="fill:#fff;opacity:0.7000000000000001"></path><path d="M458.09,246.56c-.26-.71,1.45-5.44,2.46-10.26.7-3.4.95-5.13,1.36-5.51.79-.74,3.57,2.61,2.93,7S458.23,247.29,458.09,246.56Z" style="fill:#fff;opacity:0.7000000000000001"></path><path d="M460.82,247s8.55-7.92,10.57-8.31c2.7-.52,7.33,1.26,5.22,3.2S461,247.48,460.82,247Z" style="fill:#fff;opacity:0.7000000000000001"></path><path d="M460.68,248.17c.09.46,5.08,2.35,11.72,1.61,7.74-.87,10-2.95,10.91-4.43,1.13-1.76-3.32-4.22-5.49-2.92a41.23,41.23,0,0,1-10.73,3.95C462.82,247.4,460.32,247.44,460.68,248.17Z" style="fill:#fff;opacity:0.7000000000000001"></path><path d="M471.25,237.78a7.1,7.1,0,0,1,5.86,1.18c1.11,1,.74,1.81,2.43,2a5.2,5.2,0,0,1,4.47,2.55,7.4,7.4,0,0,0-3.86-7C476.12,234.41,472.92,236.68,471.25,237.78Z" style="fill:#fff;opacity:0.7000000000000001"></path></g></g></svg>